<svg width="67" height="49" viewBox="0 0 67 49" fill="none" xmlns="http://www.w3.org/2000/svg"><path d="M29.484 0L20.202 19.474C27.118 21.658 30.576 26.2687 30.576 33.306C30.576 37.674 29.1807 41.314 26.39 44.226C23.5993 47.138 19.8987 48.594 15.288 48.594C10.7987 48.594 7.098 47.138 4.186 44.226C1.39533 41.314 0 37.674 0 33.306C0 29.302 1.274 24.752 3.822 19.656L12.74 0H29.484ZM65.156 0L55.874 19.474C62.79 21.658 66.248 26.2687 66.248 33.306C66.248 37.674 64.8527 41.314 62.062 44.226C59.2713 47.138 55.5707 48.594 50.96 48.594C46.4707 48.594 42.77 47.138 39.858 44.226C37.0673 41.314 35.672 37.674 35.672 33.306C35.672 29.302 36.946 24.752 39.494 19.656L48.412 0H65.156Z" fill="#312A50"/></svg>