<svg width="24" height="24" viewBox="0 0 24 24" fill="none" xmlns="http://www.w3.org/2000/svg">
<path d="M12 2L6 8L8 10L12 6L16 10L18 8L12 2ZM12 22L6 16L8 14L12 18L16 14L18 16L12 22Z" stroke="#FB7D57" stroke-width="1.5" stroke-miterlimit="10" stroke-linecap="round" stroke-linejoin="round"/>
<path opacity="0.4" d="M19.749 9.75099L17.5 12L19.749 14.249L21.997 12L19.75 9.75099H19.749ZM4.249 9.75099L2 12L4.249 14.249L6.497 12L4.25 9.75099H4.249ZM11.998 9.52499L9.523 12L11.998 14.475L14.473 12L11.998 9.52499V9.52499Z" stroke="#FB7D57" stroke-width="1.5" stroke-miterlimit="10" stroke-linecap="round" stroke-linejoin="round"/>
</svg>
