<svg width="26" height="25" viewBox="0 0 26 25" fill="none" xmlns="http://www.w3.org/2000/svg">
<path d="M23.5077 12.7282C23.0514 15.63 22.1635 16.4782 20.591 18.4276C19.0186 20.0794 16.7567 22.8373 13.5523 22.6835C10.6506 22.2272 9.80234 21.3393 7.85294 19.7669C6.20115 18.1945 3.44322 15.9326 3.59699 12.7282C4.05334 9.8264 4.94123 8.97819 6.51365 7.02878C8.08607 5.377 10.348 2.61906 13.5523 2.77283C16.4541 3.22918 17.3023 4.11707 19.2517 5.6895C20.9035 7.26192 23.6615 9.52382 23.5077 12.7282Z" fill="#3765AF"/>
<path d="M7.75387 14.008H6.60307L6.44434 14.6032H5.4126L6.64276 10.9921H7.74395L8.97411 14.6032H7.91756L7.75387 14.008ZM7.54057 13.2292L7.17847 11.9296L6.82133 13.2292H7.54057ZM8.55744 13.4078L9.51974 13.3383C9.54454 13.5119 9.58422 13.6409 9.64871 13.7302C9.75288 13.874 9.90168 13.9484 10.0951 13.9484C10.239 13.9484 10.3481 13.9137 10.4275 13.8343C10.5019 13.7599 10.5465 13.6707 10.5465 13.5764C10.5465 13.4822 10.5118 13.3978 10.4324 13.3234C10.358 13.249 10.1844 13.1796 9.91657 13.1151C9.4751 13.006 9.15764 12.8572 8.96915 12.6786C8.78065 12.5 8.68641 12.2619 8.68641 11.9841C8.68641 11.8006 8.73601 11.622 8.83026 11.4584C8.92946 11.2947 9.07331 11.1657 9.26676 11.0714C9.46022 10.9772 9.72807 10.9326 10.0703 10.9326C10.487 10.9326 10.8094 11.0169 11.0227 11.1905C11.241 11.3641 11.3699 11.632 11.4096 12.0089L10.4572 12.0734C10.4324 11.9097 10.3828 11.7907 10.2985 11.7163C10.2191 11.6419 10.1051 11.6072 9.96617 11.6072C9.84712 11.6072 9.75784 11.632 9.69831 11.6865C9.63879 11.7411 9.60903 11.8105 9.60903 11.8849C9.60903 11.9445 9.63383 11.9941 9.68343 12.0387C9.73303 12.0883 9.84712 12.128 10.0207 12.1677C10.4622 12.2718 10.7747 12.381 10.9682 12.4901C11.1566 12.5992 11.3005 12.7282 11.3848 12.8919C11.4691 13.0506 11.5138 13.2292 11.5138 13.4276C11.5138 13.6558 11.4543 13.8691 11.3352 14.0675C11.2162 14.2609 11.0574 14.4097 10.8491 14.5089C10.6408 14.6082 10.3779 14.6578 10.0604 14.6578C9.50486 14.6578 9.11795 14.5387 8.90962 14.3006C8.71121 14.0724 8.5872 13.7748 8.55744 13.4078ZM11.4741 10.9921H13.1507C13.5178 10.9921 13.7906 11.0863 13.9741 11.2798C14.1527 11.4683 14.2469 11.746 14.2469 12.0982C14.2469 12.4653 14.1477 12.748 13.9493 12.9514C13.7509 13.1548 13.4483 13.2589 13.0416 13.2589H12.491V14.6032H11.4741V10.9921ZM12.486 12.5298H12.734C12.9275 12.5298 13.0664 12.4951 13.1457 12.4157C13.2201 12.3413 13.2648 12.2421 13.2648 12.133C13.2648 12.0238 13.2301 11.9197 13.1606 11.8453C13.0912 11.7709 12.9672 11.7262 12.7787 11.7262H12.491V12.5298H12.486Z" fill="white"/>
<path d="M14.6489 14.5635V11.4831H15.0606V11.9196C15.259 11.5823 15.5467 11.4137 15.9188 11.4137C16.0825 11.4137 16.2313 11.4435 16.3652 11.5129C16.4991 11.5823 16.6033 11.6667 16.6727 11.7758C16.7422 11.8849 16.7868 12.0089 16.8166 12.1577C16.8364 12.252 16.8414 12.4256 16.8414 12.6637V14.5536H16.385V12.6835C16.385 12.4702 16.3652 12.3115 16.3305 12.2073C16.2958 12.1032 16.2313 12.0189 16.142 11.9544C16.0527 11.8899 15.9436 11.8601 15.8196 11.8601C15.6261 11.8601 15.4575 11.9345 15.3136 12.0734C15.1747 12.2123 15.1003 12.4802 15.1003 12.877V14.5585L14.6489 14.5635ZM19.386 13.5714L19.8573 13.6409C19.7829 13.9583 19.644 14.2014 19.4456 14.375C19.2422 14.5486 18.9842 14.6379 18.6717 14.6379C18.2799 14.6379 17.9674 14.499 17.7342 14.2212C17.5061 13.9435 17.387 13.5566 17.387 13.0556C17.387 12.5347 17.5061 12.1379 17.7342 11.8502C17.9674 11.5675 18.27 11.4187 18.642 11.4187C19.0041 11.4187 19.2967 11.5575 19.5249 11.8403C19.7531 12.123 19.8672 12.5149 19.8672 13.0208C19.8672 13.0506 19.8672 13.0952 19.8622 13.1597H17.8483C17.8682 13.497 17.9475 13.755 18.1013 13.9385C18.2501 14.1171 18.4386 14.2113 18.6668 14.2113C18.8354 14.2113 18.9793 14.1617 19.0983 14.0625C19.2223 13.9534 19.3166 13.7897 19.386 13.5714ZM17.8831 12.7282H19.391C19.3711 12.4702 19.3166 12.2768 19.2174 12.1429C19.0735 11.9445 18.885 11.8403 18.6519 11.8403C18.4436 11.8403 18.27 11.9196 18.1211 12.0784C17.9773 12.2421 17.9029 12.4603 17.8831 12.7282ZM21.4297 14.0972L21.4991 14.5585C21.3702 14.5883 21.2561 14.6032 21.1569 14.6032C20.9882 14.6032 20.8642 14.5734 20.7749 14.5139C20.6856 14.4544 20.6211 14.375 20.5815 14.2808C20.5467 14.1865 20.5269 13.9782 20.5269 13.6657V11.8948H19.0636V11.4881H20.5219V10.7242L20.9783 10.4117V11.4881H21.4396V11.8948H20.9783V13.6905C20.9783 13.8393 20.9882 13.9335 21.0031 13.9732C21.0229 14.0129 21.0428 14.0476 21.0775 14.0774C21.1122 14.1022 21.1668 14.1121 21.2313 14.1121C21.2809 14.1171 21.3503 14.1121 21.4297 14.0972Z" fill="white"/>
<path d="M13.9691 13.7649C14.1675 13.7649 14.3362 13.9335 14.3362 14.1369C14.3362 14.3403 14.1725 14.5089 13.9691 14.5089C13.7707 14.5089 13.6021 14.3403 13.6021 14.1369C13.6021 13.9335 13.7657 13.7649 13.9691 13.7649Z" fill="white"/>
</svg>
