<svg width="26" height="25" viewBox="0 0 26 25" fill="none" xmlns="http://www.w3.org/2000/svg">
<g clip-path="url(#clip0_736_1860)">
<path d="M19.0484 16.1477C18.8425 16.1478 18.6412 16.0869 18.4698 15.9725C18.2985 15.8582 18.165 15.6956 18.0861 15.5053C18.0071 15.3151 17.9864 15.1056 18.0265 14.9036C18.0666 14.7015 18.1657 14.5159 18.3112 14.3702C18.4568 14.2244 18.6423 14.1252 18.8443 14.0849C19.0462 14.0447 19.2556 14.0653 19.4459 14.1441C19.6362 14.2229 19.7988 14.3563 19.9132 14.5276C20.0277 14.6989 20.0887 14.9003 20.0887 15.1063C20.0887 15.3823 19.9792 15.6471 19.7841 15.8424C19.589 16.0377 19.3244 16.1475 19.0484 16.1477ZM7.54579 16.1477C7.33985 16.1478 7.13849 16.0869 6.96718 15.9725C6.79588 15.8582 6.66232 15.6956 6.5834 15.5053C6.50449 15.3151 6.48376 15.1056 6.52384 14.9036C6.56392 14.7015 6.66301 14.5159 6.80858 14.3702C6.95414 14.2244 7.13964 14.1252 7.34162 14.0849C7.54359 14.0447 7.75295 14.0653 7.94323 14.1441C8.13351 14.2229 8.29615 14.3563 8.41058 14.5276C8.52501 14.6989 8.58609 14.9003 8.58609 15.1063C8.58609 15.3823 8.47651 15.6471 8.28144 15.8424C8.08637 16.0377 7.82177 16.1475 7.54579 16.1477ZM19.4218 9.87658L21.5016 6.27345C21.559 6.174 21.5745 6.05581 21.5448 5.9449C21.515 5.83399 21.4425 5.73944 21.343 5.68205C21.2436 5.62465 21.1255 5.60912 21.0146 5.63886C20.9037 5.6686 20.8092 5.74119 20.7518 5.84064L18.6431 9.48986C16.9605 8.73503 15.1373 8.34481 13.2932 8.34481C11.4491 8.34481 9.62593 8.73503 7.94332 9.48986L5.83461 5.84064C5.77723 5.74119 5.68271 5.6686 5.57183 5.63886C5.46096 5.60912 5.34281 5.62465 5.24339 5.68205C5.14396 5.73944 5.0714 5.83399 5.04167 5.9449C5.01193 6.05581 5.02747 6.174 5.08484 6.27345L7.16466 9.87658C5.36796 10.855 3.84407 12.2669 2.73139 13.9841C1.6187 15.7013 0.952473 17.6693 0.793213 19.7094H25.7854C25.6261 17.6693 24.9598 15.7013 23.8471 13.9841C22.7345 12.267 21.2106 10.8551 19.414 9.87658" fill="#258AFF"/>
</g>
<defs>
<clipPath id="clip0_736_1860">
<rect width="25" height="25" fill="white" transform="translate(0.793213)"/>
</clipPath>
</defs>
</svg>
