<svg width="126" height="39" viewBox="0 0 126 39" fill="none" xmlns="http://www.w3.org/2000/svg">
<path fill-rule="evenodd" clip-rule="evenodd" d="M69.9296 16.5236C70.5649 14.5186 72.0165 13.4354 74.0566 13.1312C75.5013 12.9164 76.935 12.9902 78.3394 13.4469C78.7143 13.5683 78.875 13.688 78.875 13.688C78.875 13.688 79.0092 15.7068 79.0628 16.5285C77.8916 16.075 76.7305 15.8298 75.5204 15.856C74.1475 15.8848 73.2834 16.5375 72.9585 17.8651C72.4189 20.0446 72.9585 21.7682 72.9585 21.7682C73.2834 23.0958 74.1475 23.7486 75.5204 23.7774C76.7305 23.8025 77.8916 23.5575 79.0628 23.104C79.0092 23.9259 78.875 25.9445 78.875 25.9445C78.875 25.9445 78.7143 26.065 78.3394 26.1863C76.935 26.6431 75.5013 26.717 74.0566 26.5011C72.0165 26.1977 70.6002 25.1591 69.9296 23.1098C69.3235 21.2557 69.3803 18.3964 69.9296 16.5236Z" fill="#333333"/>
<path fill-rule="evenodd" clip-rule="evenodd" d="M61.6165 20.9139C60.6084 20.9139 59.8344 21.3747 59.8344 22.4563C59.8344 23.3052 60.1938 23.8354 61.0056 24.0078C61.6673 24.1356 62.3529 24.1563 63.0433 23.9815C63.7902 23.7928 64.3346 23.2658 64.4486 22.5047C64.5249 22.0021 64.5217 21.3969 64.5217 20.9139H61.6165ZM64.9955 26.3823C64.9955 26.3823 64.6677 25.4387 64.5217 25.0508C63.5172 26.6237 61.978 26.672 60.4133 26.6119C59.6559 26.5827 58.9301 26.3839 58.2806 25.9742C57.1252 25.2444 56.6701 24.1291 56.6055 22.8253C56.494 20.5777 57.737 19.0886 59.9764 18.7983C60.5833 18.7188 61.2015 18.7155 61.8157 18.7056C62.7013 18.6909 63.6145 18.7015 64.5257 18.7015C64.5257 18.7015 64.5675 17.6667 64.3732 17.0706C64.0721 16.1423 62.9906 15.9513 62.1715 15.9234C60.0109 15.8504 57.6607 16.399 57.6607 16.399L58.1642 13.5315C60.2677 13.1723 62.5216 12.8336 64.6348 13.3781C66.4166 13.8373 67.4523 15.0821 67.6665 16.909C67.7115 17.2928 67.7436 17.6806 67.7444 18.066C67.7501 20.7425 67.7444 26.3823 67.7444 26.3823H64.9955Z" fill="#333333"/>
<path fill-rule="evenodd" clip-rule="evenodd" d="M114.06 20.9139C113.052 20.9139 112.278 21.3747 112.278 22.4563C112.278 23.3052 112.637 23.8354 113.449 24.0078C114.111 24.1356 114.796 24.1563 115.487 23.9815C116.234 23.7928 116.777 23.2658 116.892 22.5047C116.968 22.0021 116.965 21.3969 116.965 20.9139H114.06ZM117.439 26.3823C117.439 26.3823 117.111 25.4387 116.965 25.0508C115.961 26.6237 114.421 26.672 112.856 26.6119C112.099 26.5827 111.374 26.3839 110.724 25.9742C109.569 25.2444 109.114 24.1291 109.049 22.8253C108.937 20.5777 110.18 19.0886 112.42 18.7983C113.027 18.7188 113.645 18.7155 114.258 18.7056C115.145 18.6909 116.058 18.7015 116.969 18.7015C116.969 18.7015 117.011 17.6667 116.817 17.0706C116.515 16.1423 115.434 15.9513 114.615 15.9234C112.454 15.8504 110.103 16.399 110.103 16.399L110.608 13.5315C112.71 13.1723 114.965 12.8336 117.077 13.3781C118.86 13.8373 119.895 15.0821 120.11 16.909C120.155 17.2928 120.187 17.6806 120.188 18.066C120.194 20.7425 120.188 26.3823 120.188 26.3823H117.439Z" fill="#333333"/>
<path fill-rule="evenodd" clip-rule="evenodd" d="M51.5342 26.3836H54.8149V8.19995L51.5342 8.82397V26.3836Z" fill="#333333"/>
<path fill-rule="evenodd" clip-rule="evenodd" d="M43.5299 17.0083H40.4544V11.4184H43.5299C45.2415 11.507 46.1279 12.7025 46.1279 14.2154C46.1279 15.8964 45.0881 16.9034 43.5299 17.0083ZM43.5299 8.40491H36.8994V26.3835H40.4544V20.0259H43.5299C46.7397 20.0259 49.6143 18.454 49.6143 14.2154C49.6143 9.97685 46.7397 8.40491 43.5299 8.40491Z" fill="#333333"/>
<path fill-rule="evenodd" clip-rule="evenodd" d="M122.807 26.3836H126V13.2865H122.807V26.3836Z" fill="#333333"/>
<path fill-rule="evenodd" clip-rule="evenodd" d="M96.9834 14.7398L96.6179 13.2695H93.8633V26.3828H97.0743V19.0333C97.0743 19.0333 97.0877 18.5093 97.1221 18.2502C97.3071 16.8447 98.4658 15.9214 99.6633 15.8575C100.366 15.8197 100.942 15.9026 101.509 16.1002L102.031 13.3409C99.91 12.6455 98.1201 13.1728 96.9834 14.7398Z" fill="#333333"/>
<path fill-rule="evenodd" clip-rule="evenodd" d="M88.9768 18.6325C88.9192 16.8129 88.0794 15.6928 86.3074 15.6961C84.5552 15.6985 83.6737 17.0065 83.6712 18.6325H88.9768ZM91.3488 23.1875L90.8782 26.05C88.8538 26.6249 86.4855 26.8671 84.3487 26.2797C82.5093 25.7746 81.2927 24.5924 80.7795 22.7661C80.2038 20.717 80.2063 18.6448 80.8704 16.6121C81.5953 14.3972 83.2104 13.2763 85.485 13.0622C86.6035 12.9565 87.7187 13.0147 88.7865 13.4091C90.41 14.0085 91.2956 15.25 91.735 16.8687C92.0851 18.1577 92.0287 19.4746 91.9999 20.8334H83.6826C83.595 22.4168 84.4708 23.3681 85.7 23.6468C86.9102 23.9206 88.1232 23.8224 89.3285 23.6147C90.0072 23.4975 90.6437 23.3409 91.3488 23.1875Z" fill="#333333"/>
<path fill-rule="evenodd" clip-rule="evenodd" d="M102.641 26.3832H106.437V22.7357H102.641V26.3832Z" fill="#333333"/>
<path fill-rule="evenodd" clip-rule="evenodd" d="M122.807 11.4291V8.40491H126V11.4291H122.807Z" fill="#333333"/>
<path fill-rule="evenodd" clip-rule="evenodd" d="M8.60987 14.76C7.93011 14.76 7.37988 14.2089 7.37988 13.53V11.07C7.37988 10.391 7.93011 9.83997 8.60987 9.83997C9.28883 9.83997 9.83987 10.391 9.83987 11.07V13.53C9.83987 14.2089 9.28883 14.76 8.60987 14.76Z" fill="#5E63E5"/>
<path fill-rule="evenodd" clip-rule="evenodd" d="M18.4507 14.76C17.7708 14.76 17.2207 14.2089 17.2207 13.53V11.07C17.2207 10.391 17.7708 9.83997 18.4507 9.83997C19.1294 9.83997 19.6808 10.391 19.6808 11.07V13.53C19.6808 14.2089 19.1294 14.76 18.4507 14.76Z" fill="#5E63E5"/>
<path fill-rule="evenodd" clip-rule="evenodd" d="M13.5299 22.14C8.32134 22.14 4.1 17.6988 4.1 12.2196C4.1 11.2897 4.22463 10.3902 4.45177 9.53658V9.60133C4.97575 7.83997 6.53702 6.55996 8.38531 6.55996C10.6618 6.55996 12.2999 8.50172 12.2999 10.8969V15.4553C12.2999 16.1277 12.8452 16.673 13.5178 16.673H13.5421C14.2147 16.673 14.76 16.1277 14.76 15.4553V10.8969C14.76 8.50172 16.3973 6.55996 18.6748 6.55996C20.5231 6.55996 22.0842 7.83997 22.6083 9.60218V9.53658C22.8355 10.3902 22.9601 11.2897 22.9601 12.2196C22.9601 17.6988 18.7377 22.14 13.5299 22.14ZM17.22 25.8315C17.22 26.5098 16.6699 27.0599 15.9916 27.0599H15.9884C15.3093 27.0599 14.76 26.5098 14.76 25.8315V25.2976C14.76 25.2542 14.8172 25.2444 14.8322 25.2854C15.0026 25.7584 15.4561 26.0972 15.9884 26.0972H15.9916C16.5239 26.0972 16.9762 25.7584 17.1478 25.2854C17.1616 25.2444 17.22 25.2542 17.22 25.2976V25.8315ZM14.76 28.2915C14.76 28.9698 14.2099 29.5199 13.5316 29.5199H13.5283C12.8492 29.5199 12.2999 28.9698 12.2999 28.2915V27.7577C12.2999 27.7142 12.3575 27.7045 12.3721 27.7455C12.5425 28.2185 12.9961 28.5573 13.5283 28.5573H13.5316C14.0638 28.5573 14.5166 28.2185 14.6878 27.7455C14.7016 27.7045 14.76 27.7142 14.76 27.7577V28.2915ZM11.0715 27.0599H11.0683C10.3894 27.0599 9.83998 26.5098 9.83998 25.8315V25.2976C9.83998 25.2542 9.89738 25.2444 9.91214 25.2854C10.0827 25.7584 10.5362 26.0972 11.0683 26.0972H11.0715C11.6038 26.0972 12.0565 25.7584 12.2277 25.2854C12.2419 25.2444 12.2999 25.2542 12.2999 25.2976V25.8315C12.2999 26.5098 11.7498 27.0599 11.0715 27.0599ZM24.8173 5.36031L25.3447 2.45996H20.3779C17.2537 2.45996 14.592 4.41402 13.5299 7.16268C12.4683 4.41402 9.80553 2.45996 6.68136 2.45996H1.71543L2.2427 5.36031C0.797046 7.44066 0 10.0105 0 12.8838C0 26.0988 13.5299 34.4401 13.5299 34.4401C13.5299 34.4401 27.0599 26.0988 27.0599 12.8838C27.0599 10.0105 26.2627 7.44066 24.8173 5.36031Z" fill="#5E63E5"/>
<path fill-rule="evenodd" clip-rule="evenodd" d="M18.86 37.72C18.86 38.1723 16.4738 38.5398 13.5301 38.5398C10.5865 38.5398 8.2002 38.1723 8.2002 37.72C8.2002 37.2664 10.5865 36.8997 13.5301 36.8997C16.4738 36.8997 18.86 37.2664 18.86 37.72Z" fill="#5E63E5"/>
<path fill-rule="evenodd" clip-rule="evenodd" d="M13.5296 5.1824C14.8176 3.06104 17.1426 1.64002 19.8059 1.64002H20.597C18.6144 0.592865 16.2379 0 13.5296 0C10.8212 0 8.44469 0.592865 6.46191 1.64002H7.2532C9.91659 1.64002 12.2411 3.06104 13.5296 5.1824Z" fill="#5E63E5"/>
</svg>
