<svg width="179" height="41" viewBox="0 0 179 41" fill="none" xmlns="http://www.w3.org/2000/svg">
<path d="M30.1451 1.01709H11.3597C5.85986 1.01709 1.40137 5.47558 1.40137 10.9754V29.5644C1.40137 35.0643 5.85986 39.5227 11.3597 39.5227H30.1451C35.6446 39.5227 40.1035 35.0643 40.1035 29.5644V10.9754C40.1035 5.47558 35.6446 1.01709 30.1451 1.01709Z" fill="white"/>
<path d="M30.1451 1.01709H11.3597C5.85986 1.01709 1.40137 5.47558 1.40137 10.9754V29.5644C1.40137 35.0643 5.85986 39.5227 11.3597 39.5227H30.1451C35.6446 39.5227 40.1035 35.0643 40.1035 29.5644V10.9754C40.1035 5.47558 35.6446 1.01709 30.1451 1.01709Z" stroke="#155EEF" stroke-width="1.32778"/>
<path d="M6.4043 20.2699C6.4043 15.1398 10.5844 10.9755 15.7478 10.9755C20.9113 10.9755 25.0914 15.1398 25.0914 20.2699C25.0914 25.4 20.9113 29.5644 15.7478 29.5644C10.5844 29.5644 6.4043 25.4 6.4043 20.2699Z" fill="#004EEB" stroke="white" stroke-width="1.32778"/>
<path d="M11.4082 20.2699C11.4082 15.1398 15.5884 10.9755 20.7518 10.9755C25.9151 10.9755 30.0954 15.1398 30.0954 20.2699C30.0954 25.4 25.9151 29.5644 20.7518 29.5644C15.5884 29.5644 11.4082 25.4 11.4082 20.2699Z" fill="#004EEB" stroke="white" stroke-width="1.32778"/>
<path d="M16.4121 20.2699C16.4121 15.1398 20.5922 10.9755 25.7556 10.9755C30.9192 10.9755 35.0991 15.1398 35.0991 20.2699C35.0991 25.4 30.9192 29.5644 25.7556 29.5644C20.5922 29.5644 16.4121 25.4 16.4121 20.2699Z" fill="#004EEB" stroke="white" stroke-width="1.32778"/>
<path d="M59.2213 28.9853H55.1191L61.3694 10.8792H66.3029L72.5444 28.9853H68.4423L63.9066 15.0167H63.7652L59.2213 28.9853ZM58.9649 21.8683H68.6543V24.8565H58.9649V21.8683Z" fill="#004EEB"/>
<path d="M78.8954 34.3602C77.6753 34.3602 76.629 34.1922 75.757 33.8561C74.8904 33.5259 74.2009 33.0749 73.6881 32.5032C73.1754 31.9316 72.8422 31.2894 72.6892 30.5763L76.1723 30.1074C76.2785 30.3788 76.4465 30.6323 76.6764 30.8679C76.9062 31.1035 77.2099 31.2923 77.587 31.4338C77.9699 31.581 78.4358 31.6544 78.9838 31.6544C79.8032 31.6544 80.4777 31.4541 81.0083 31.0533C81.5447 30.6583 81.8127 29.9954 81.8127 29.064V26.5799H81.6538C81.4887 26.957 81.241 27.3138 80.9112 27.6498C80.581 27.9859 80.1566 28.2597 79.638 28.4721C79.1195 28.6841 78.5005 28.7903 77.7816 28.7903C76.7618 28.7903 75.8333 28.5547 74.9966 28.0829C74.1656 27.6054 73.5022 26.8778 73.0073 25.8991C72.5182 24.915 72.2734 23.6713 72.2734 22.1684C72.2734 20.63 72.524 19.3452 73.0252 18.3138C73.5259 17.2823 74.1922 16.5102 75.0232 15.9974C75.8599 15.4848 76.7768 15.2284 77.7724 15.2284C78.5328 15.2284 79.1697 15.358 79.682 15.6173C80.1947 15.8707 80.6076 16.189 80.9199 16.5721C81.2381 16.9493 81.4829 17.3207 81.6538 17.6861H81.7953V15.4051H85.5348V29.1172C85.5348 30.2726 85.2519 31.2392 84.686 32.017C84.1206 32.7954 83.3365 33.3786 82.3346 33.7678C81.3385 34.1627 80.1918 34.3602 78.8954 34.3602ZM78.9751 25.9609C79.582 25.9609 80.0948 25.8107 80.5134 25.5104C80.9373 25.2038 81.2618 24.7677 81.4858 24.2018C81.7156 23.6301 81.8306 22.9464 81.8306 22.1508C81.8306 21.355 81.7185 20.6655 81.4945 20.0819C81.2705 19.4925 80.9465 19.0358 80.5221 18.7117C80.0977 18.3874 79.582 18.2253 78.9751 18.2253C78.3561 18.2253 77.8342 18.3934 77.4103 18.7293C76.9859 19.0594 76.6643 19.5191 76.4465 20.1085C76.2283 20.6979 76.1192 21.3787 76.1192 22.1508C76.1192 22.9345 76.2283 23.6124 76.4465 24.1841C76.6706 24.7499 76.9916 25.1889 77.4103 25.5013C77.8342 25.8079 78.3561 25.9609 78.9751 25.9609Z" fill="#004EEB"/>
<path d="M93.4747 29.2499C92.0779 29.2499 90.8756 28.967 89.868 28.4011C88.8661 27.8295 88.0936 27.0222 87.5514 25.9788C87.0091 24.9297 86.7383 23.689 86.7383 22.2568C86.7383 20.8599 87.0091 19.6341 87.5514 18.579C88.0936 17.524 88.8569 16.7018 89.8414 16.1124C90.8317 15.523 91.9924 15.2284 93.3245 15.2284C94.2207 15.2284 95.0545 15.3727 95.8266 15.6615C96.6044 15.9445 97.2823 16.3717 97.8598 16.9435C98.4435 17.5152 98.8974 18.2342 99.2213 19.1006C99.5458 19.9611 99.7075 20.969 99.7075 22.1242V23.1586H88.2413V20.8246H96.1626C96.1626 20.2823 96.0448 19.802 95.8092 19.3835C95.5731 18.965 95.2462 18.638 94.8276 18.4022C94.4153 18.1605 93.9348 18.0397 93.3864 18.0397C92.8147 18.0397 92.3077 18.1723 91.8659 18.4375C91.4294 18.6969 91.0881 19.0476 90.8404 19.4896C90.5927 19.9258 90.4662 20.412 90.4599 20.9483V23.1675C90.4599 23.8393 90.584 24.42 90.8317 24.9091C91.0852 25.3984 91.4415 25.7755 91.9012 26.0406C92.3608 26.3061 92.9059 26.4384 93.537 26.4384C93.9551 26.4384 94.3385 26.3795 94.6861 26.2617C95.0338 26.1439 95.3317 25.9672 95.5789 25.7311C95.8266 25.4955 96.0154 25.2067 96.1448 24.8649L99.6284 25.0947C99.4512 25.9315 99.089 26.6625 98.5406 27.2872C97.9983 27.9062 97.2973 28.3895 96.4364 28.7372C95.5823 29.079 94.5949 29.2499 93.4747 29.2499Z" fill="#004EEB"/>
<path d="M104.687 21.1341V28.9849H100.921V15.4051H104.51V17.801H104.67C104.97 17.0112 105.474 16.3865 106.181 15.9268C106.888 15.4612 107.746 15.2284 108.754 15.2284C109.697 15.2284 110.519 15.4346 111.221 15.8471C111.922 16.2598 112.467 16.8492 112.856 17.6154C113.245 18.3756 113.44 19.2833 113.44 20.3384V28.9849H109.673V21.0102C109.679 20.1793 109.467 19.5309 109.037 19.0653C108.607 18.5938 108.014 18.3579 107.259 18.3579C106.753 18.3579 106.305 18.467 105.916 18.6851C105.533 18.9032 105.232 19.2214 105.014 19.64C104.802 20.0525 104.693 20.5505 104.687 21.1341Z" fill="#004EEB"/>
<path d="M122.387 15.406V18.2351H114.209V15.406H122.387ZM116.066 12.1526H119.832V24.8127C119.832 25.1605 119.885 25.4314 119.991 25.6259C120.097 25.8147 120.244 25.9475 120.433 26.0238C120.628 26.1006 120.852 26.1387 121.105 26.1387C121.282 26.1387 121.459 26.1242 121.635 26.0948C121.813 26.0595 121.948 26.033 122.042 26.0151L122.634 28.8179C122.446 28.8768 122.18 28.9444 121.839 29.0212C121.497 29.1037 121.082 29.1535 120.592 29.1713C119.685 29.2066 118.889 29.0859 118.205 28.8087C117.527 28.5316 117 28.1014 116.623 27.5181C116.246 26.9344 116.06 26.1976 116.066 25.3077V12.1526Z" fill="#004EEB"/>
<path d="M127.361 21.1341V28.9849H123.595V15.4051H127.184V17.801H127.343C127.644 17.0112 128.148 16.3865 128.855 15.9268C129.562 15.4612 130.419 15.2284 131.427 15.2284C132.37 15.2284 133.193 15.4346 133.894 15.8471C134.595 16.2598 135.141 16.8492 135.53 17.6154C135.919 18.3756 136.113 19.2833 136.113 20.3384V28.9849H132.347V21.0102C132.352 20.1793 132.14 19.5309 131.71 19.0653C131.279 18.5938 130.687 18.3579 129.933 18.3579C129.427 18.3579 128.979 18.467 128.59 18.6851C128.207 18.9032 127.906 19.2214 127.688 19.64C127.476 20.0525 127.367 20.5505 127.361 21.1341Z" fill="#004EEB"/>
<path d="M143.972 29.2499C142.599 29.2499 141.411 28.9583 140.41 28.3746C139.414 27.7855 138.644 26.9662 138.102 25.917C137.56 24.8619 137.288 23.6389 137.288 22.248C137.288 20.8451 137.56 19.6193 138.102 18.5701C138.644 17.5152 139.414 16.6959 140.41 16.1124C141.411 15.523 142.599 15.2284 143.972 15.2284C145.345 15.2284 146.531 15.523 147.526 16.1124C148.528 16.6959 149.3 17.5152 149.842 18.5701C150.385 19.6193 150.656 20.8451 150.656 22.248C150.656 23.6389 150.385 24.8619 149.842 25.917C149.3 26.9662 148.528 27.7855 147.526 28.3746C146.531 28.9583 145.345 29.2499 143.972 29.2499ZM143.989 26.3327C144.615 26.3327 145.136 26.1555 145.555 25.8021C145.973 25.4423 146.289 24.9533 146.5 24.3345C146.719 23.7156 146.828 23.0113 146.828 22.2214C146.828 21.4316 146.719 20.7274 146.5 20.1085C146.289 19.4896 145.973 19.0005 145.555 18.6409C145.136 18.2814 144.615 18.1016 143.989 18.1016C143.359 18.1016 142.829 18.2814 142.399 18.6409C141.974 19.0005 141.652 19.4896 141.435 20.1085C141.222 20.7274 141.116 21.4316 141.116 22.2214C141.116 23.0113 141.222 23.7156 141.435 24.3345C141.652 24.9533 141.974 25.4423 142.399 25.8021C142.829 26.1555 143.359 26.3327 143.989 26.3327Z" fill="#004EEB"/>
<path d="M157.996 29.2499C156.622 29.2499 155.434 28.9583 154.432 28.3746C153.436 27.7855 152.667 26.9662 152.124 25.917C151.582 24.8619 151.312 23.6389 151.312 22.248C151.312 20.8451 151.582 19.6193 152.124 18.5701C152.667 17.5152 153.436 16.6959 154.432 16.1124C155.434 15.523 156.622 15.2284 157.996 15.2284C159.368 15.2284 160.553 15.523 161.549 16.1124C162.551 16.6959 163.323 17.5152 163.866 18.5701C164.408 19.6193 164.679 20.8451 164.679 22.248C164.679 23.6389 164.408 24.8619 163.866 25.917C163.323 26.9662 162.551 27.7855 161.549 28.3746C160.553 28.9583 159.368 29.2499 157.996 29.2499ZM158.013 26.3327C158.637 26.3327 159.159 26.1555 159.577 25.8021C159.997 25.4423 160.311 24.9533 160.524 24.3345C160.742 23.7156 160.85 23.0113 160.85 22.2214C160.85 21.4316 160.742 20.7274 160.524 20.1085C160.311 19.4896 159.997 19.0005 159.577 18.6409C159.159 18.2814 158.637 18.1016 158.013 18.1016C157.382 18.1016 156.851 18.2814 156.421 18.6409C155.997 19.0005 155.676 19.4896 155.459 20.1085C155.246 20.7274 155.14 21.4316 155.14 22.2214C155.14 23.0113 155.246 23.7156 155.459 24.3345C155.676 24.9533 155.997 25.4423 156.421 25.8021C156.851 26.1555 157.382 26.3327 158.013 26.3327Z" fill="#004EEB"/>
<path d="M169.649 21.1341V28.9849H165.883V15.4051H169.473V17.801H169.631C169.932 17.0112 170.435 16.3865 171.143 15.9268C171.851 15.4612 172.708 15.2284 173.717 15.2284C174.659 15.2284 175.481 15.4346 176.182 15.8471C176.883 16.2598 177.429 16.8492 177.818 17.6154C178.207 18.3756 178.401 19.2833 178.401 20.3384V28.9849H174.636V21.0102C174.641 20.1793 174.429 19.5309 173.999 19.0653C173.569 18.5938 172.976 18.3579 172.221 18.3579C171.715 18.3579 171.267 18.467 170.878 18.6851C170.495 18.9032 170.194 19.2214 169.976 19.64C169.764 20.0525 169.655 20.5505 169.649 21.1341Z" fill="#004EEB"/>
</svg>
