<svg width="26" height="25" viewBox="0 0 26 25" fill="none" xmlns="http://www.w3.org/2000/svg">
<g clip-path="url(#clip0_736_1980)">
<path d="M9.47928 19.2211C9.47928 19.2211 8.52928 19.7734 10.1551 19.9601C11.8697 20.201 13.6138 20.1271 15.3019 19.7422C15.738 20.0031 16.1953 20.2266 16.6691 20.4102C11.8035 22.4953 5.6535 20.2891 9.48163 19.2211" fill="#5382A1"/>
<path d="M8.88556 16.5C8.88556 16.5 7.82072 17.2891 9.4465 17.457C11.6624 17.7205 13.9067 17.6128 16.0871 17.1383C16.3818 17.4142 16.7298 17.6269 17.1098 17.7633C11.227 19.482 4.67463 17.8977 8.88556 16.5008" fill="#5382A1"/>
<path d="M13.8956 11.8836C15.0948 13.2641 13.5831 14.5063 13.5831 14.5063C13.5831 14.5063 16.63 12.9344 15.2292 10.9672C13.9237 9.13204 12.9221 8.22032 18.3432 5.07657C18.3432 5.07657 9.83543 7.20157 13.8987 11.8844" fill="#E76F00"/>
<path d="M20.3324 21.2336C20.3324 21.2336 21.0355 21.8125 19.5582 22.2601C16.7457 23.1109 7.86987 23.368 5.40269 22.2937C4.51597 21.9078 6.17925 21.3726 6.70269 21.2601C6.98388 21.1916 7.27268 21.1593 7.56206 21.164C6.57612 20.4695 1.18784 22.5281 4.82769 23.1172C14.7496 24.7265 22.9097 22.393 20.3378 21.2328" fill="#5382A1"/>
<path d="M9.9355 13.6813C9.9355 13.6813 5.41831 14.7539 8.3355 15.1438C10.3252 15.298 12.3246 15.2765 14.3105 15.0797C16.18 14.9234 18.0605 14.5867 18.0605 14.5867C17.6659 14.7581 17.286 14.9614 16.9246 15.1945C12.3378 16.4008 3.47612 15.8399 6.02768 14.6055C7.23944 13.9904 8.58048 13.6732 9.9394 13.6805" fill="#5382A1"/>
<path d="M18.0395 18.2102C22.7028 15.7883 20.5465 13.4586 19.0419 13.7727C18.8608 13.8063 18.6826 13.8541 18.509 13.9156C18.6078 13.7754 18.7467 13.6683 18.9075 13.6086C21.8848 12.5625 24.1747 16.6961 17.9465 18.3328C17.9847 18.2979 18.0162 18.2563 18.0395 18.2102Z" fill="#5382A1"/>
<path d="M15.2278 0C15.2278 0 17.8106 2.58359 12.7793 6.55547C8.74416 9.74219 11.859 11.5555 12.7793 13.6352C10.4238 11.5102 8.69572 9.63906 9.8551 7.89844C11.5551 5.34219 16.2699 4.10313 15.2278 0Z" fill="#E76F00"/>
<path d="M10.394 24.775C14.8698 25.0617 21.7432 24.6188 21.9057 22.4984C21.9057 22.4984 21.5932 23.3016 18.2073 23.9391C14.4629 24.5814 10.6416 24.6402 6.87915 24.1133C6.87915 24.1133 7.45103 24.5867 10.3948 24.775" fill="#5382A1"/>
</g>
<defs>
<clipPath id="clip0_736_1980">
<rect width="25" height="25" fill="white" transform="translate(0.396484)"/>
</clipPath>
</defs>
</svg>
