<svg width="108" height="36" viewBox="0 0 108 36" fill="none" xmlns="http://www.w3.org/2000/svg">
<path d="M41.4731 31.1666C37.4544 28.5778 32.0006 28.1235 23.205 30.5638C13.8284 32.7673 10.702 34.1798 6.59627 31.3442C5.01893 29.9513 4.45341 27.7085 4.87569 24.478C5.85512 19.2116 8.50193 14.1436 13.2034 8.52193C15.8276 5.59756 18.2619 3.08791 21.4761 2.08014C23.9396 1.44793 23.7093 3.38397 23.4112 3.66085C23.0966 3.66085 22.5683 3.7104 22.1599 3.97689C21.8284 4.23393 20.9187 5.06391 20.8698 6.18036C20.7993 7.88946 22.568 7.53373 23.3309 6.59535C24.1532 5.53789 25.3684 3.51289 24.4125 1.62559C24.0118 0.953831 23.3195 0.489566 22.46 0.331481C19.5167 0.163271 16.7757 1.56633 14.2458 3.11748C8.7132 6.96079 4.2875 12.2863 1.78325 18.1156C0.339556 21.6327 -0.966164 26.6709 0.990931 30.7716C2.50509 33.6168 5.6483 35.1281 9.39846 34.8121C12.0287 34.5358 15.2091 33.6857 17.3482 33.1724C19.4874 32.6582 30.437 28.8944 34.0347 35.4453C34.0347 35.4453 35.2311 33.1228 38.221 33.0733C40.679 32.8465 44.2252 33.7849 46.8075 35.6815C45.9471 34.3877 43.508 32.4808 41.4731 31.1666Z" fill="#E61A27"/>
<path d="M24.3214 9.18389C22.2735 7.84023 18.1573 10.409 14.8605 14.8153C11.8457 18.7677 10.5439 23.3613 11.9607 25.4855C14.0681 27.9851 17.9805 24.3494 19.6442 22.4034L19.8589 22.1759C20.9903 20.9606 21.8643 19.4983 22.7105 18.0951C22.7105 18.0951 23.4881 16.8107 23.5252 16.7513C24.0058 16.6628 24.5847 16.5244 25.237 16.3366C25.2277 16.366 22.7413 20.5454 22.9949 22.6198C23.0739 23.2526 23.0137 25.5645 25.2708 26.2658C28.2791 26.7701 30.6813 24.4381 32.8005 22.3633C32.8005 22.3633 33.1616 22.0178 33.3659 21.8206C33.3142 22.0274 33.2468 22.3035 33.2468 22.3035C32.3661 25.3663 33.5533 26.0091 34.2959 26.2461C36.5403 26.8987 39.2215 23.6381 39.2303 23.6381C39.1606 24.6651 38.9575 25.5147 40.0402 26.1966C41.062 26.5624 42.0962 26.0046 42.8825 25.481C45.7141 23.4854 47.9953 20.3617 49.8378 17.6619H48.6625C48.6486 17.6619 45.7624 21.8453 43.8882 22.7545C43.8852 22.7545 43.5441 22.9296 43.3477 22.7911C43.1043 22.5836 43.2002 22.152 43.3505 21.8463C43.3599 21.8265 50.587 9.29189 50.587 9.29189H47.1748C47.1748 9.29189 46.802 9.89493 46.7717 9.93449C46.7487 9.91478 46.694 9.8111 46.6562 9.76142C44.5421 6.83705 39.7546 11.3352 36.1503 16.5516C34.7626 18.5575 32.9959 20.8159 31.1639 22.446C31.1639 22.446 28.4499 24.9338 27.2904 23.1464C26.8665 22.3954 26.9969 21.2974 27.236 20.5764C28.5861 16.733 30.9125 13.245 33.56 11.1404C34.3073 10.5579 35.1197 10.3894 35.5227 10.6365C35.9069 10.8641 35.9688 11.4268 35.7258 11.8122C35.1093 11.7925 34.6152 11.9799 34.2137 12.3949C33.4226 13.2248 33.1477 14.0253 33.3992 14.7763C34.6211 16.5151 37.058 13.0767 36.9402 10.9822C36.898 10.2312 36.4975 9.52004 35.8994 9.1739C35.0083 8.64065 33.6489 8.77875 32.7691 9.20387C31.5912 9.64829 29.727 11.1993 28.6387 12.4049C27.2688 13.9167 24.9191 15.5961 24.1844 15.4081C24.4246 14.7657 26.4092 10.7052 24.3214 9.18389ZM40.7727 15.1908C41.4365 14.2722 43.3685 11.8119 43.8395 11.3971C45.4236 10.0035 46.0567 10.6166 46.1115 11.0511C44.6331 13.6988 42.8883 16.7321 41.2477 19.4591C41.2511 19.4494 40.7343 20.2396 40.7343 20.2396C40.0098 21.3458 39.2802 22.2944 38.0902 22.9562C37.9205 23.006 37.6408 23.0258 37.4546 22.8869C37.2305 22.7387 37.1421 22.4916 37.1674 22.2347C37.2388 21.3853 38.1036 18.7874 40.7727 15.1908ZM22.2095 16.7814C22.2095 16.7814 22.1797 16.8707 22.1651 16.8998C22.1613 16.8998 20.6772 19.3201 20.6772 19.3201C19.7817 20.5158 18.6635 22.0179 17.2657 22.7388C16.8513 22.8771 16.2785 22.9663 15.9867 22.601C15.368 21.8598 15.6868 20.8322 15.9459 20.0025L16.0377 19.7061C16.7805 17.6908 17.9589 15.912 19.1061 14.262C19.1204 14.2523 19.1526 14.2425 19.1642 14.2425C19.167 14.2523 19.1716 14.2523 19.1735 14.2722C19.8933 15.6551 21.243 16.297 22.2524 16.5939C22.2585 16.5939 22.2651 16.6038 22.2651 16.6236C22.2653 16.653 22.2488 16.6929 22.2095 16.7814ZM23.6154 13.9264C23.6088 13.9461 22.9544 15.4479 22.9544 15.4479C22.8598 15.5269 22.7102 15.4874 22.5388 15.4479L22.245 15.3982C21.3225 15.1119 20.6268 14.4992 20.4122 13.7682C20.1165 12.3455 21.3319 11.229 21.8673 10.8241C22.3811 10.4681 23.1799 10.2805 23.6437 10.6462C23.9298 10.9822 24.0382 11.4168 24.0382 11.8913C24.0383 12.5332 23.8402 13.2544 23.6154 13.9264ZM66.7533 18.5104C66.4242 17.7992 65.6432 17.3446 64.8108 17.3939C62.1077 17.6411 59.4637 19.864 58.0754 23.055C57.3469 24.6953 56.9493 26.0486 56.6886 28.2024C57.5293 27.2345 59.2438 25.6439 61.1894 24.7744C61.1894 24.7744 61.4541 22.7095 62.8041 20.8718C63.315 20.1108 64.3372 18.8858 65.4851 19.2117C66.4881 19.5477 66.1355 22.3241 64.8025 25.0109C63.8162 26.9871 62.3069 28.9637 60.7798 30.3268C59.4297 31.4728 57.4321 32.856 55.6844 31.7891C54.5836 31.1373 54.0221 29.7734 54.1406 28.0149C54.6666 23.0257 56.9378 18.7773 60.188 13.9362C63.5392 9.44079 67.2333 4.8269 72.2099 2.36638C73.2249 1.85271 74.1649 1.73418 74.9775 2.05035C74.9775 2.05035 70.306 4.61913 68.0791 9.37154C67.5127 10.5771 66.7248 12.2068 67.5182 13.6494C67.9328 14.4002 68.6688 14.4596 69.2616 14.42C71.9912 13.7875 73.7547 11.2386 75.1955 8.90714C76.0309 7.13864 76.7734 5.37999 76.7734 3.42371C76.7734 3.18665 76.7611 2.87061 76.7411 2.63328C78.0451 1.94195 80.7193 3.1668 80.7193 3.1668C82.809 3.85868 87.2584 7.26743 88.7594 7.91921C89.4915 7.06965 90.6946 5.7854 91.3722 5.14306L90.3914 4.54029C88.8213 3.58193 87.1618 2.67284 85.5284 1.77387C81.8187 -0.251265 78.7991 0.459915 77.2624 1.01328C76.6584 1.2305 76.1065 1.41828 76.1065 1.41828C74.966 0.173445 73.0955 0.291705 71.7172 0.627855C66.7608 2.05049 62.1591 5.51823 57.2255 11.5353C53.5984 16.2482 51.3484 20.3188 50.1492 24.3398C49.2249 27.0468 48.944 31.0284 51.2001 33.3898C53.1183 35.3949 55.6618 34.9605 57.4579 34.2396C61.3495 32.3229 64.8472 28.1928 66.5901 23.4404C67.0107 22.0278 67.4774 20.0321 66.7533 18.5104ZM75.702 3.62148C75.1869 9.52976 70.5943 12.9979 69.4579 13.2741C68.7692 13.4122 67.5942 13.1062 68.6433 10.6266C70.188 7.28687 72.8255 4.4516 75.6551 2.99913C75.724 3.24618 75.7222 3.40386 75.702 3.62148ZM102.945 4.37208C100.474 5.77527 97.9135 6.68396 94.8136 6.36792C93.9546 7.33641 93.118 8.3342 92.347 9.36155C96.6979 10.4681 101.31 8.00804 103.883 5.66673C106.604 3.30531 108 0.331665 108 0.331665C108 0.331665 105.96 2.66312 102.945 4.37208ZM56.2583 9.29216H53.0177L51.1898 12.2622H54.4297L56.2583 9.29216Z" fill="#E61A27"/>
<path d="M94.8011 31.4416C94.4527 31.6786 93.9632 31.4964 94.1461 30.9532C94.6021 29.5699 96.4146 26.7512 96.4146 26.7512L101.463 17.7971H98.0051C97.8407 18.0671 97.4893 18.6871 97.4893 18.6871C97.3293 18.4206 96.8508 17.8281 96.6539 17.6999C95.809 17.166 94.5696 17.4185 93.7145 17.9024C89.9968 20.0763 87.2842 24.3714 85.1449 27.7209C85.1449 27.7209 82.8929 31.4442 81.643 31.721C80.667 31.8001 80.7677 30.4855 80.81 30.1792C81.1873 27.9657 82.0636 25.8615 82.9464 23.9546C84.7421 22.7098 86.7913 21.0797 88.6536 19.2915C92.6953 15.428 96.1025 11.0512 96.6005 10.0731C96.6005 10.0731 96.0615 10.1819 95.425 10.2015C92.3156 14.5388 85.9528 20.8425 84.0238 21.7809C84.8784 19.7253 90.3996 9.91489 95.0979 5.22202L95.8373 4.51044C96.9806 3.39399 98.1651 2.24797 99.0882 2.06019C99.1857 2.05033 99.3112 2.06019 99.4196 2.2878C99.4608 3.15706 99.1372 3.79939 98.7659 4.53042L98.2457 5.59759C98.2457 5.59759 98.9826 5.45922 99.4667 5.30073C100.028 4.24408 100.65 3.05811 100.421 1.6456C100.345 1.19106 100.015 0.845323 99.5854 0.766213C98.1838 0.499453 96.6564 1.53652 95.4273 2.37663L95.3777 2.40606C89.0594 7.35597 83.7244 14.4894 79.0599 24.2311C78.7218 24.4876 77.4157 24.7942 77.1938 24.6458C77.6544 23.6976 78.2343 22.4228 78.5244 21.0396C78.5747 20.6442 78.6214 20.2394 78.6214 19.8443C78.6214 18.9939 78.4173 18.1939 77.6556 17.6409C76.7624 17.1963 75.6585 17.4039 74.9141 17.7395C71.58 19.1227 69.0881 22.5414 67.2898 25.3569C66.3226 27.1456 65.3583 29.0614 65.0913 31.2552C64.9032 32.974 65.2861 34.0807 66.2635 34.6341C67.2684 35.1475 68.5334 34.6138 69.0303 34.3572C72.4081 32.5787 74.7683 29.0123 76.6286 25.7517C76.7026 25.742 77.7184 25.7126 78.4868 25.5147C78.4969 25.5147 78.5012 25.5147 78.5182 25.5249C78.4742 25.6726 78.0772 26.8586 78.0772 26.8586C76.8981 30.3162 76.3528 32.6679 77.4666 34.0609C79.0581 36.027 81.693 33.992 83.8364 31.3042C83.3764 34.5249 85.0455 35.0291 86.318 34.7823C87.7796 34.3873 89.4084 32.8259 90.1643 32.0259C89.9216 32.9643 89.9874 34.6442 91.3172 34.8119C92.2284 34.9803 92.9106 34.4846 93.6997 34.0596C96.5305 32.5182 99.9191 27.3819 100.799 25.8969H99.6453C98.3946 27.7873 96.803 30.2653 94.8011 31.4416ZM69.3917 31.0976C69.2122 30.8307 69.1526 30.5391 69.1467 30.2238C69.1123 28.2864 71.1966 24.8171 72.6677 22.9271H72.6708C73.2873 24.2771 74.6834 25.1449 75.5262 25.5106C74.4796 27.8425 70.8895 32.8364 69.3917 31.0976ZM76.1171 24.4682C76.0175 24.5378 74.257 23.9446 73.9166 22.3145C73.628 20.911 74.5945 19.8144 75.5295 19.2618C75.9308 18.9453 76.5354 18.837 76.9788 18.9945C77.3905 19.2716 77.502 19.766 77.502 20.2986C77.502 20.6253 77.4586 20.9609 77.4204 21.267L77.412 21.3364C77.1172 22.4318 76.6819 23.4844 76.1171 24.4682ZM90.2377 30.4753C90.2362 30.4753 89.9036 30.7716 89.9036 30.7716C89.4287 31.1963 88.94 31.6507 88.35 31.4234C88.1871 31.3642 88.0725 31.147 88.0449 30.9785C88.0181 29.7633 88.5652 28.6372 89.096 27.5406L89.2321 27.254C90.7587 24.7051 92.5331 21.7016 95.1392 19.6172C95.5783 19.3004 96.0549 19.0341 96.5579 19.2418C96.6736 19.3503 96.8083 19.5381 96.8083 19.7256C96.8083 19.7851 96.7554 19.9431 96.725 19.9924C95.9971 21.1686 95.304 22.4033 94.63 23.5889C93.3126 25.9305 91.946 28.3506 90.2377 30.4753Z" fill="#E61A27"/>
</svg>
