<svg width="26" height="25" viewBox="0 0 26 25" fill="none" xmlns="http://www.w3.org/2000/svg">
<g clip-path="url(#clip0_736_1960)">
<path d="M1.16846 20.5523H9.87627C9.87627 20.5523 8.21221 12.9578 13.7231 9.88201C14.9247 9.29764 18.7497 7.11561 25.0106 11.7445C25.2091 11.5789 25.3966 11.4469 25.3966 11.4469C25.3966 11.4469 19.6646 5.72576 13.2825 6.36873C10.0747 6.65545 6.12861 9.57654 3.81377 13.4344C2.46366 15.6056 1.56405 18.0263 1.16846 20.5523Z" fill="#CC0000"/>
<path d="M1.16846 20.5523H9.87627C9.87627 20.5523 8.21221 12.9578 13.7231 9.88201C14.9247 9.29764 18.7497 7.11561 25.0106 11.7445C25.2091 11.5789 25.3966 11.4469 25.3966 11.4469C25.3966 11.4469 19.6646 5.72576 13.2825 6.36873C10.0747 6.65545 6.12861 9.57654 3.81377 13.4344C2.46366 15.6056 1.56405 18.0263 1.16846 20.5523Z" fill="#CC0000"/>
<path d="M1.16846 20.5523H9.87627C9.87627 20.5523 8.21221 12.9578 13.7231 9.88201C14.9247 9.29764 18.7497 7.11561 25.0106 11.7445C25.2091 11.5789 25.3966 11.4469 25.3966 11.4469C25.3966 11.4469 19.6646 5.72576 13.2825 6.36873C10.0638 6.65545 6.11768 9.57654 3.80283 13.4344C2.45271 15.6046 1.55654 18.026 1.16846 20.5523Z" fill="#CC0000"/>
<path d="M19.3122 6.98359L19.356 6.24531C19.0141 6.07932 18.6555 5.94996 18.2864 5.85938L18.2427 6.58672C18.6067 6.70781 18.9591 6.84062 19.3122 6.98359Z" fill="#CC0000"/>
<path d="M18.2645 9.32031L18.2207 10.0148C18.5885 10.026 18.9546 10.0702 19.3145 10.1469L19.3582 9.46328C18.9975 9.38989 18.632 9.34211 18.2645 9.32031Z" fill="#CC0000"/>
<path d="M14.1895 5.88124H14.2996L14.0762 5.20859C13.7223 5.20941 13.3688 5.23158 13.0176 5.27499L13.227 5.92499C13.5468 5.8938 13.8681 5.8792 14.1895 5.88124Z" fill="#CC0000"/>
<path d="M14.7153 9.93673L14.9685 10.6977C15.2783 10.5455 15.5989 10.4165 15.9278 10.3117L15.6856 9.58438C15.355 9.68081 15.0308 9.7985 14.7153 9.93673Z" fill="#CC0000"/>
<path d="M9.71045 7.03904L9.21436 6.27811C8.93858 6.42108 8.65186 6.57576 8.35498 6.75232L8.86201 7.5242C9.14873 7.34764 9.42451 7.18201 9.71045 7.03904Z" fill="#CC0000"/>
<path d="M11.9707 11.9984L12.4996 12.7922C12.6942 12.5142 12.9117 12.2529 13.1496 12.0109L12.6535 11.2617C12.406 11.4881 12.1776 11.7345 11.9707 11.9984Z" fill="#CC0000"/>
<path d="M10.3723 15.5484L11.2653 16.2515C11.3112 15.8164 11.3896 15.3852 11.4997 14.9617L10.7059 14.3367C10.5706 14.7336 10.4592 15.1382 10.3723 15.5484Z" fill="#CC0000"/>
<path d="M5.54414 10.3125L4.76289 9.62891C4.47617 9.90469 4.20039 10.1797 3.94727 10.4555L4.7957 11.1828C5.03009 10.8801 5.2799 10.5896 5.54414 10.3125Z" fill="#CC0000"/>
<path d="M2.21523 15.2398L0.943359 14.7766C0.733984 15.2508 0.502734 15.8016 0.396484 16.0992L1.66445 16.5625C1.80742 16.1875 2.03711 15.6476 2.21523 15.2398Z" fill="#CC0000"/>
<path d="M10.2065 18.3477C10.2216 18.813 10.2657 19.2769 10.3386 19.7367L11.6612 20.2109C11.5493 19.738 11.461 19.2604 11.3964 18.7781L10.2065 18.3477Z" fill="#CC0000"/>
</g>
<defs>
<clipPath id="clip0_736_1960">
<rect width="25" height="25" fill="white" transform="translate(0.396484)"/>
</clipPath>
</defs>
</svg>
