<svg width="138" height="32" viewBox="0 0 138 32" fill="none" xmlns="http://www.w3.org/2000/svg">
<mask id="mask0_8165_2346" style="mask-type:luminance" maskUnits="userSpaceOnUse" x="0" y="0" width="138" height="32">
<path d="M137.401 0.715088H0V31.8248H137.401V0.715088Z" fill="white"/>
</mask>
<g mask="url(#mask0_8165_2346)">
<path d="M36.0534 25.7294C30.6284 25.7294 27.332 21.6502 27.332 16.3624V2.0391C27.332 1.82359 27.5089 1.64661 27.7241 1.64661H31.4969C31.7121 1.64661 31.8885 1.82359 31.8885 2.0391V15.6775C31.8885 18.8793 33.3409 21.6962 37.1751 21.6962C40.8554 21.6962 42.6998 19.2719 42.6998 15.7237V2.0391C42.6998 1.82359 42.8762 1.64661 43.0914 1.64661H46.8642C47.0795 1.64661 47.2563 1.82359 47.2563 2.0391V20.6802C47.2563 22.2425 47.3637 23.6744 47.4481 24.5749C47.4715 24.8059 47.2947 25.0057 47.0564 25.0057H43.4682C43.2683 25.0057 43.1068 24.8596 43.0838 24.6593C43.0454 24.3209 43.0071 23.8666 42.9764 23.3974C42.9534 23.0433 42.5153 22.8971 42.2847 23.1741C40.8324 24.9137 38.3739 25.7294 36.0534 25.7294Z" fill="#242CF1"/>
<path d="M64.0596 5.81824C64.0596 6.04918 63.8598 6.23388 63.6292 6.20311C63.0991 6.14153 62.5689 6.11072 62.0771 6.11072C58.2506 6.11072 55.6766 8.15032 55.6766 13.2994V24.6056C55.6766 24.8212 55.4998 24.9981 55.2846 24.9981H51.5118C51.297 24.9981 51.1201 24.8212 51.1201 24.6056V2.03922C51.1201 1.82371 51.297 1.64669 51.5118 1.64669H55.1925C55.4077 1.64669 55.5841 1.82371 55.5841 2.03922V4.24814C55.5841 4.63296 56.0836 4.78689 56.2988 4.46365C58.0124 1.91606 60.4863 1.25415 62.5536 1.25415C62.984 1.25415 63.414 1.30035 63.7213 1.34654C63.9135 1.37731 64.052 1.53895 64.052 1.73137L64.0596 5.81824Z" fill="#242CF1"/>
<path d="M86.6654 18.2168C86.873 18.2861 86.9804 18.5169 86.9037 18.7248C85.4897 22.6733 81.8247 25.7285 76.5612 25.7285C70.3068 25.7285 64.8281 21.1647 64.8281 13.2525C64.8281 5.9176 70.1146 0.922485 75.9773 0.922485C83.1539 0.922485 87.1726 5.8714 87.1726 13.1601C87.1726 13.5603 87.1495 13.9605 87.1189 14.2683C87.0954 14.4685 86.9343 14.6225 86.7268 14.6225H69.9378C69.7072 14.6225 69.5304 14.8148 69.5457 15.0458C69.8304 18.9942 72.7654 21.7111 76.5535 21.7111C80.1648 21.7111 82.0476 19.81 82.9693 17.3547C83.0465 17.1547 83.2617 17.0546 83.4611 17.1238L86.6654 18.2168ZM82.0092 10.9204C82.2393 10.9204 82.4162 10.7203 82.4009 10.4971C82.1396 7.35687 79.973 4.94783 76.0234 4.94783C72.3814 4.94783 70.0993 7.62625 69.7149 10.474C69.6842 10.7049 69.8687 10.9127 70.107 10.9127H82.0092V10.9204Z" fill="#242CF1"/>
<path d="M118.339 17.6244C118.562 17.5474 118.8 17.686 118.854 17.9168C119.307 20.1336 121.12 21.8346 124.209 21.8346C126.776 21.8346 128.181 20.3797 128.181 18.7251C128.181 17.2704 127.114 16.1543 125.177 15.7157L121.205 14.8383C117.57 14.0609 115.388 11.5826 115.388 8.28072C115.388 4.30157 119.123 0.899658 123.679 0.899658C129.742 0.899658 131.847 4.64791 132.461 6.81835C132.516 7.0108 132.408 7.2186 132.223 7.28785L128.958 8.51161C128.735 8.59629 128.505 8.46545 128.443 8.23452C128.105 6.91841 126.975 4.78646 123.687 4.78646C121.359 4.78646 119.806 6.29498 119.806 7.89589C119.806 9.3044 120.682 10.3203 122.473 10.7129L126.253 11.5364C130.472 12.46 132.7 15.0306 132.7 18.4788C132.7 21.7805 129.933 25.7135 124.171 25.7135C118.039 25.7135 115.288 21.919 114.728 19.2561C114.689 19.0636 114.797 18.8713 114.981 18.8097L118.339 17.6244Z" fill="#242CF1"/>
<path d="M101.441 0.921509C94.2801 0.690615 88.4327 6.55544 88.6556 13.7287C88.8631 20.2246 94.1415 25.512 100.627 25.72C107.788 25.951 113.635 20.086 113.413 12.9129C113.213 6.41689 107.927 1.12935 101.441 0.921509ZM101.449 21.2713C96.7313 21.51 92.8588 17.6308 93.097 12.9051C93.3041 8.86442 96.5851 5.57799 100.619 5.37016C105.337 5.13159 109.21 9.01067 108.972 13.7364C108.772 17.7771 105.491 21.0633 101.449 21.2713Z" fill="#242CF1"/>
<path d="M4.88788 22.1271C6.3401 21.8041 8.19957 21.5113 10.2588 21.4883C13.217 21.4576 15.9525 21.9732 18.4034 23.0122C18.7341 23.1507 19.0567 23.2969 19.3716 23.4584C23.0294 20.9803 25.242 16.624 24.7732 11.9214C24.0896 5.09448 18.0731 0.130177 11.25 0.776705C4.38842 1.42319 -0.621398 7.53433 0.0624616 14.392C0.377479 17.563 1.86047 20.3338 4.03496 22.3274C4.30391 22.2579 4.58053 22.1885 4.88788 22.1271ZM12.0414 5.17915C16.0906 4.97903 19.687 7.93454 20.2938 11.9445C21.0008 16.6317 17.5276 20.8878 12.7945 21.1188C8.74514 21.3191 5.14911 18.3634 4.54209 14.3535C3.83517 9.67395 7.30826 5.41005 12.0414 5.17915Z" fill="#242CF1"/>
<path d="M25.4881 29.2776C23.5439 26.9073 21.1851 25.1293 18.4956 23.9902C16.0448 22.9512 13.3092 22.4356 10.3509 22.4663C8.29167 22.4893 6.43221 22.7816 4.97998 23.1051C3.86583 23.3514 2.9899 23.6207 2.43666 23.8129C2.07553 23.9361 1.89108 24.3367 2.02942 24.6904L2.9284 26.9149C3.05902 27.238 3.42019 27.4076 3.75059 27.2998C4.8647 26.9303 7.44647 26.2067 10.5046 26.1913C15.5295 26.1606 19.587 27.9769 22.5603 31.5865C22.7909 31.864 23.1906 31.91 23.4749 31.6943L25.3726 30.2399C25.6803 30.0012 25.7263 29.5704 25.4881 29.2776Z" fill="#242CF1"/>
</g>
</svg>
