<svg width="26" height="25" viewBox="0 0 26 25" fill="none" xmlns="http://www.w3.org/2000/svg">
<g clip-path="url(#clip0_793_1421)">
<path d="M15.2556 2.02878C25.8558 9.24108 22.4183 17.1677 22.4183 17.1677C22.4183 17.1677 25.4293 20.5655 24.2189 23.5417C24.2189 23.5417 22.9689 21.4633 20.8955 21.4633C18.8916 21.4633 17.706 23.5417 13.6584 23.5417C4.66041 23.5417 0.394531 16.0218 0.394531 16.0218C8.50465 21.3691 14.0453 17.5794 14.0453 17.5794C10.3846 15.4613 2.61675 5.32243 2.61675 5.32243C9.38759 11.0863 12.3092 12.5992 12.3092 12.5992C10.5533 11.1607 5.65743 4.11211 5.65743 4.11211C9.57608 8.07541 17.3638 13.6012 17.3638 13.6012C19.5959 7.49505 15.2556 2.02878 15.2556 2.02878Z" fill="url(#paint0_linear_793_1421)"/>
</g>
<defs>
<linearGradient id="paint0_linear_793_1421" x1="16.4867" y1="2.36533" x2="11.1663" y2="23.4232" gradientUnits="userSpaceOnUse">
<stop stop-color="#FAAE42"/>
<stop offset="1" stop-color="#EF3E31"/>
</linearGradient>
<clipPath id="clip0_793_1421">
<rect width="25" height="25" fill="white" transform="translate(0.0078125)"/>
</clipPath>
</defs>
</svg>
