<svg width="28" height="30" viewBox="0 0 28 30" fill="none" xmlns="http://www.w3.org/2000/svg">
<path d="M12.8876 0.315259C13.6203 -0.104139 14.5747 -0.106033 15.3067 0.315259C18.9898 2.39636 22.6739 4.47419 26.3563 6.55656C27.0489 6.9467 27.5122 7.7175 27.5052 8.51557V21.0363C27.5103 21.8674 27.0013 22.6566 26.2705 23.0379C22.5996 25.1075 18.9306 27.1797 15.2603 29.2493C14.5125 29.6769 13.5389 29.644 12.8144 29.1813C11.7139 28.5433 10.6115 27.9085 9.51083 27.2711C9.28592 27.1371 9.03239 27.0303 8.87358 26.8123C9.01397 26.623 9.26498 26.5995 9.46894 26.5169C9.92833 26.3708 10.3503 26.1363 10.7723 25.9088C10.879 25.8357 11.0093 25.8637 11.1116 25.9291C12.0527 26.4687 12.9855 27.0239 13.9297 27.5584C14.1312 27.6746 14.3351 27.5203 14.5073 27.4243C18.1096 25.3883 21.7163 23.3601 25.318 21.3235C25.4514 21.2593 25.5252 21.1176 25.5144 20.9714C25.5169 16.8411 25.515 12.7101 25.5156 8.57977C25.5309 8.41391 25.4349 8.26141 25.2849 8.19352C21.6268 6.13337 17.9705 4.07006 14.3129 2.00938C14.2495 1.96581 14.1745 1.94243 14.0976 1.94232C14.0207 1.94221 13.9455 1.96536 13.882 2.00874C10.2245 4.07006 6.56883 6.13526 2.91128 8.19531C2.76184 8.2633 2.66154 8.41327 2.67932 8.57977C2.67996 12.7101 2.67932 16.8411 2.67932 20.9721C2.67298 21.0434 2.68865 21.1149 2.72421 21.1771C2.75977 21.2393 2.81353 21.289 2.87824 21.3197C3.85427 21.8732 4.83157 22.4228 5.80823 22.9743C6.35845 23.2705 7.03401 23.4465 7.64022 23.2196C8.17518 23.0277 8.55016 22.4818 8.53995 21.9138C8.545 17.8076 8.53743 13.7007 8.54374 9.59517C8.53038 9.41288 8.70329 9.26228 8.88052 9.27943C9.34949 9.27628 9.81909 9.27312 10.2881 9.2807C10.4838 9.27628 10.6185 9.47256 10.5943 9.65621C10.5924 13.7884 10.5994 17.9207 10.5912 22.0529C10.5924 23.1542 10.14 24.3525 9.12132 24.8914C7.86639 25.5415 6.3153 25.4036 5.07552 24.7802C4.00224 24.2445 2.97801 23.6123 1.92378 23.0384C1.19117 22.6592 0.684631 21.8668 0.689788 21.0364V8.51557C0.682105 7.70098 1.16381 6.91618 1.87799 6.53172C5.54828 4.46041 9.21793 2.38752 12.8876 0.315259Z" fill="#0CBFAA"/>
<path d="M16.0895 8.9883C17.6903 8.88526 19.404 8.92726 20.8444 9.71585C21.9597 10.3202 22.578 11.5885 22.5977 12.8275C22.5666 12.9946 22.3919 13.0868 22.2323 13.0753C21.7679 13.0747 21.3033 13.0817 20.8389 13.0722C20.6419 13.0798 20.5273 12.8981 20.5026 12.7239C20.3692 12.1311 20.0459 11.5439 19.4879 11.258C18.6313 10.8291 17.6381 10.8507 16.704 10.8596C16.0222 10.8958 15.2889 10.9549 14.7112 11.3559C14.2677 11.6596 14.133 12.2728 14.2913 12.7666C14.4405 13.1211 14.8498 13.2355 15.1847 13.341C17.1139 13.8455 19.1581 13.7953 21.0504 14.4593C21.8338 14.73 22.6002 15.2562 22.8684 16.0765C23.2192 17.1759 23.0654 18.49 22.2832 19.3725C21.6489 20.0988 20.7251 20.4941 19.8037 20.7088C18.5779 20.9821 17.3058 20.9891 16.061 20.8677C14.8905 20.7343 13.6724 20.4268 12.7687 19.6292C11.996 18.9583 11.6186 17.9129 11.6561 16.9039C11.665 16.7335 11.8347 16.6147 11.9979 16.6287C12.4656 16.6249 12.9333 16.6237 13.4011 16.6293C13.5879 16.616 13.7264 16.7774 13.7359 16.9535C13.8222 17.5183 14.0345 18.1112 14.5271 18.4461C15.4776 19.0593 16.6704 19.0173 17.7588 19.0345C18.6605 18.9945 19.6728 18.9824 20.4086 18.3864C20.7969 18.0465 20.9119 17.4777 20.807 16.9884C20.6933 16.5754 20.2612 16.3829 19.8901 16.257C17.9857 15.6546 15.9186 15.8732 14.0326 15.1919C13.267 14.9213 12.5266 14.4097 12.2324 13.6231C11.822 12.5099 12.01 11.1329 12.8742 10.2801C13.7168 9.4318 14.9331 9.10512 16.0895 8.98819V8.9883Z" fill="#0CBFAA"/>
</svg>
