<?xml version="1.0" encoding="utf-8"?>
<!-- Generator: Adobe Illustrator 16.0.0, SVG Export Plug-In . SVG Version: 6.00 Build 0)  -->
<!DOCTYPE svg PUBLIC "-//W3C//DTD SVG 1.1//EN" "http://www.w3.org/Graphics/SVG/1.1/DTD/svg11.dtd">
<svg version="1.1" id="Layer_1" xmlns="http://www.w3.org/2000/svg" xmlns:xlink="http://www.w3.org/1999/xlink" x="0px" y="0px"
	 width="25px" height="25px" viewBox="0 0 25 25" enable-background="new 0 0 25 25" xml:space="preserve">
<path fill="#8BB9FF" d="M12.5,8.203c-0.776,0-1.538,0.211-2.204,0.609c-0.666,0.398-1.212,0.97-1.58,1.653s-0.543,1.454-0.508,2.229
	c0.035,0.775,0.28,1.526,0.708,2.175c0.027,0.045,0.063,0.085,0.105,0.117c0.042,0.031,0.091,0.053,0.143,0.065
	c0.052,0.012,0.105,0.013,0.157,0.004s0.102-0.029,0.146-0.059c0.044-0.029,0.082-0.067,0.111-0.111
	c0.029-0.044,0.049-0.095,0.059-0.146s0.008-0.105-0.004-0.157s-0.035-0.101-0.066-0.143c-0.481-0.729-0.675-1.608-0.543-2.47
	c0.131-0.862,0.578-1.645,1.253-2.196c0.675-0.552,1.531-0.833,2.402-0.789c0.871,0.044,1.695,0.41,2.311,1.026
	s0.982,1.44,1.026,2.311c0.044,0.872-0.237,1.727-0.789,2.403c-0.551,0.676-1.334,1.121-2.195,1.253
	c-0.863,0.132-1.743-0.063-2.47-0.543c-0.043-0.028-0.091-0.049-0.141-0.059c-0.051-0.011-0.103-0.011-0.153,0
	c-0.051,0.011-0.099,0.03-0.141,0.059c-0.043,0.028-0.08,0.065-0.108,0.108s-0.048,0.092-0.058,0.142
	c-0.01,0.051-0.009,0.103,0.001,0.153c0.01,0.05,0.031,0.098,0.06,0.141s0.066,0.078,0.109,0.107
	c0.559,0.369,1.197,0.602,1.862,0.682c0.666,0.078,1.34,0,1.97-0.228c0.63-0.229,1.197-0.601,1.658-1.087
	c0.461-0.487,0.801-1.075,0.993-1.717s0.233-1.319,0.117-1.979s-0.384-1.284-0.784-1.821c-0.399-0.538-0.92-0.974-1.518-1.275
	C13.83,8.36,13.17,8.203,12.5,8.203z"/>
<path fill="#8BB9FF" d="M11.523,9.766c-0.104,0-0.203,0.041-0.276,0.114s-0.114,0.173-0.114,0.276v4.688
	c0,0.104,0.041,0.203,0.114,0.276s0.173,0.114,0.276,0.114s0.203-0.041,0.276-0.114s0.114-0.173,0.114-0.276v-0.391h0.781v0.391
	c0,0.104,0.041,0.203,0.114,0.276s0.173,0.114,0.276,0.114s0.203-0.041,0.276-0.114s0.114-0.173,0.114-0.276v-0.463
	c0.182-0.063,0.346-0.17,0.476-0.312s0.224-0.313,0.271-0.5s0.047-0.382,0-0.569c-0.047-0.186-0.14-0.358-0.27-0.5
	c0.13-0.142,0.223-0.314,0.27-0.5s0.047-0.382,0-0.569s-0.141-0.358-0.271-0.5s-0.294-0.249-0.476-0.312v-0.462
	c0-0.104-0.041-0.203-0.114-0.276s-0.173-0.114-0.276-0.114S12.883,9.807,12.81,9.88s-0.114,0.173-0.114,0.276v0.391h-0.781v-0.391
	c0-0.104-0.041-0.203-0.114-0.276S11.627,9.766,11.523,9.766z M13.086,13.672h-1.172v-0.781h1.172c0.104,0,0.203,0.041,0.276,0.114
	s0.114,0.173,0.114,0.276s-0.041,0.203-0.114,0.276S13.189,13.672,13.086,13.672z M13.086,11.328c0.104,0,0.203,0.041,0.276,0.114
	s0.114,0.173,0.114,0.276s-0.041,0.203-0.114,0.276s-0.173,0.114-0.276,0.114h-1.172v-0.781H13.086z"/>
<path fill="#8BB9FF" d="M14.844,12.891c0.216,0,0.391-0.175,0.391-0.391s-0.175-0.391-0.391-0.391s-0.391,0.175-0.391,0.391
	S14.628,12.891,14.844,12.891z"/>
<path fill="#8BB9FF" d="M10.156,12.891c0.216,0,0.391-0.175,0.391-0.391s-0.175-0.391-0.391-0.391S9.766,12.284,9.766,12.5
	S9.94,12.891,10.156,12.891z"/>
<path fill="#8BB9FF" d="M23.248,9.319c0.058-0.035,0.105-0.084,0.139-0.143s0.051-0.125,0.051-0.192V7.031
	c0-0.067-0.018-0.134-0.051-0.192s-0.081-0.107-0.139-0.143l-1.953-1.172c-0.061-0.036-0.131-0.056-0.201-0.056
	s-0.141,0.02-0.201,0.056l-1.755,1.055l-4.294-2.506V2.344c0-0.067-0.018-0.134-0.051-0.192s-0.081-0.107-0.139-0.143L13.87,1.54
	c-0.089-0.053-0.194-0.069-0.296-0.044c-0.1,0.025-0.187,0.089-0.24,0.178c-0.053,0.089-0.068,0.195-0.043,0.295
	c0.024,0.101,0.088,0.187,0.178,0.24l0.225,0.134L12.5,3.06l-1.194-0.716l1.395-0.837c0.087-0.055,0.149-0.141,0.173-0.24
	c0.023-0.1,0.007-0.205-0.045-0.292c-0.053-0.087-0.138-0.151-0.237-0.177s-0.204-0.011-0.293,0.04l-1.953,1.172
	c-0.058,0.035-0.105,0.084-0.139,0.143s-0.051,0.125-0.051,0.192v1.729L5.862,6.577L4.107,5.524
	c-0.061-0.036-0.13-0.056-0.201-0.056s-0.141,0.02-0.201,0.056L1.752,6.696C1.694,6.731,1.646,6.78,1.613,6.839
	S1.563,6.964,1.563,7.031v1.953c0,0.067,0.018,0.134,0.051,0.192s0.081,0.107,0.139,0.143l1.764,1.058v4.246l-1.764,1.058
	c-0.058,0.035-0.105,0.084-0.139,0.143s-0.051,0.125-0.051,0.192v1.953c0,0.067,0.018,0.134,0.051,0.192s0.081,0.107,0.139,0.143
	l1.953,1.172c0.061,0.036,0.13,0.056,0.201,0.056s0.141-0.02,0.201-0.056l1.755-1.053l4.294,2.505v1.729
	c0,0.067,0.018,0.134,0.051,0.192s0.081,0.107,0.139,0.143l1.953,1.172c0.061,0.036,0.13,0.056,0.201,0.056s0.141-0.02,0.201-0.056
	l1.953-1.172c0.058-0.035,0.105-0.084,0.139-0.143s0.051-0.125,0.051-0.192v-1.729l4.294-2.505l1.755,1.055
	c0.06,0.036,0.127,0.055,0.196,0.056s0.138-0.018,0.198-0.051c0.061-0.035,0.109-0.084,0.145-0.145
	c0.035-0.06,0.053-0.128,0.053-0.197v-1.732l1.172-0.703v1.043l-0.266,0.159c-0.045,0.026-0.082,0.062-0.113,0.103
	s-0.053,0.088-0.064,0.138c-0.014,0.05-0.016,0.102-0.008,0.152s0.025,0.1,0.051,0.144c0.027,0.044,0.063,0.082,0.104,0.113
	c0.041,0.029,0.088,0.053,0.137,0.064c0.051,0.012,0.102,0.015,0.152,0.008c0.051-0.008,0.1-0.025,0.145-0.052l0.455-0.273
	c0.058-0.035,0.105-0.084,0.139-0.143s0.051-0.125,0.051-0.192v-1.953c0-0.067-0.018-0.134-0.051-0.192s-0.081-0.107-0.139-0.143
	l-1.764-1.058v-4.246L23.248,9.319z M12.5,21.42l-1.194-0.717l1.194-0.717l1.193,0.717L12.5,21.42z M3.906,16.732l-1.194-0.717
	l1.194-0.717L5.1,16.016L3.906,16.732z M10.544,4.751l1.565,0.939v0.971c-0.949,0.064-1.869,0.358-2.679,0.858
	s-1.486,1.189-1.97,2.008L6.25,8.769V7.255L10.544,4.751z M14.456,4.751l4.294,2.504v1.512l-1.211,0.756
	c-0.107-0.182-0.225-0.358-0.352-0.528c-0.063-0.083-0.154-0.138-0.258-0.152c-0.102-0.015-0.206,0.012-0.289,0.074
	c-0.083,0.062-0.138,0.154-0.152,0.257s0.012,0.207,0.074,0.29c0.66,0.874,1.018,1.94,1.016,3.036c0,1.004-0.298,1.986-0.855,2.821
	c-0.559,0.835-1.352,1.485-2.279,1.87s-1.949,0.485-2.934,0.289c-0.985-0.195-1.89-0.68-2.6-1.39c-0.71-0.71-1.194-1.615-1.39-2.601
	c-0.196-0.984-0.096-2.006,0.289-2.934c0.384-0.928,1.035-1.721,1.87-2.279s1.817-0.856,2.821-0.856
	c1.096-0.001,2.162,0.355,3.036,1.016c0.042,0.031,0.088,0.053,0.138,0.066s0.102,0.016,0.152,0.008s0.1-0.024,0.144-0.051
	c0.044-0.026,0.083-0.061,0.113-0.102s0.054-0.088,0.065-0.137c0.014-0.05,0.016-0.102,0.009-0.152s-0.024-0.1-0.05-0.144
	c-0.027-0.044-0.062-0.083-0.103-0.113c-0.903-0.681-1.985-1.083-3.114-1.156V5.69L14.456,4.751z M20.703,8.424v1.042l-1.172-0.703
	V7.721L20.703,8.424z M5.855,15.558l-1.558-0.935v-4.246l1.558-0.935l1.246,0.781c-0.304,0.721-0.46,1.495-0.46,2.276
	c0,0.781,0.156,1.556,0.46,2.276L5.855,15.558z M12.109,4.779l-1.172-0.703V3.034l1.172,0.703V4.779z M5.469,8.763L4.297,9.466
	V8.424l1.172-0.703V8.763z M6.25,16.231l1.211-0.759c0.483,0.82,1.16,1.51,1.97,2.009s1.729,0.794,2.679,0.858v0.971l-1.565,0.938
	L6.25,17.744V16.231z M14.456,20.249l-1.565-0.938V18.34c0.949-0.064,1.869-0.359,2.679-0.858s1.486-1.188,1.97-2.009l1.211,0.759
	v1.513L14.456,20.249z M17.899,14.776c0.304-0.722,0.46-1.496,0.46-2.278c0-0.783-0.158-1.557-0.463-2.278l1.25-0.778l1.557,0.935
	v4.246l-1.559,0.935L17.899,14.776z M21.484,9.466V8.424l1.172-0.703v1.042L21.484,9.466z M21.094,6.315l1.193,0.716l-1.193,0.716
	L19.9,7.031L21.094,6.315z M14.063,3.034v1.042l-1.172,0.703V3.737L14.063,3.034z M3.906,6.315L5.1,7.031L3.906,7.748L2.712,7.031
	L3.906,6.315z M2.344,7.721l1.172,0.703v1.042L2.344,8.763V7.721z M2.344,16.705l1.172,0.703v1.043l-1.172-0.703V16.705z
	 M4.297,18.451v-1.043l1.172-0.703v1.043L4.297,18.451z M10.938,21.393l1.172,0.703v1.043l-1.172-0.703V21.393z M12.891,23.139
	v-1.043l1.172-0.703v1.043L12.891,23.139z M19.531,17.748v-1.043l1.172,0.703v1.043L19.531,17.748z M21.094,16.732L19.9,16.016
	l1.193-0.717l1.194,0.717L21.094,16.732z"/>
</svg>
