<svg width="28" height="25" viewBox="0 0 28 25" fill="none" xmlns="http://www.w3.org/2000/svg">
<path d="M26.8558 12.4156C26.8558 10.768 24.7925 9.20626 21.6292 8.23829C22.3589 5.01407 22.0347 2.44845 20.605 1.62735C20.2585 1.433 19.8663 1.33507 19.4691 1.34376V2.47423C19.6699 2.46794 19.869 2.51341 20.0472 2.60626C20.7371 3.00157 21.0355 4.50704 20.8027 6.44376C20.7472 6.92032 20.6558 7.42188 20.5441 7.93438C19.4844 7.67905 18.4088 7.49453 17.3246 7.38204C16.6786 6.49097 15.974 5.64404 15.2152 4.84688C16.8683 3.31094 18.4183 2.46954 19.4738 2.46954V1.33829C18.0792 1.33829 16.2542 2.33203 14.4089 4.05547C12.5636 2.34219 10.7371 1.3586 9.34409 1.3586V2.48907C10.3933 2.48907 11.9496 3.32579 13.6027 4.85157C12.8477 5.64589 12.1481 6.4911 11.5089 7.38126C10.4226 7.4926 9.3453 7.67898 8.28471 7.93907C8.16831 7.43204 8.08158 6.94063 8.02143 6.46876C7.78705 4.53204 8.0769 3.02657 8.76128 2.62579C8.94015 2.53019 9.14148 2.48457 9.34409 2.49375V1.36329C8.94368 1.3546 8.54816 1.45247 8.198 1.64688C6.773 2.46797 6.45425 5.02813 7.18941 8.24219C4.03628 9.21563 1.98315 10.7719 1.98315 12.4149C1.98315 14.0578 4.04644 15.6242 7.20972 16.5922C6.48003 19.8164 6.80424 22.382 8.23393 23.2031C8.58192 23.398 8.97583 23.4959 9.37456 23.4867C10.7691 23.4867 12.5941 22.493 14.4394 20.7695C16.2847 22.4828 18.1113 23.4664 19.5042 23.4664C19.9047 23.4751 20.3002 23.3772 20.6503 23.1828C22.0753 22.3617 22.3941 19.8016 21.6589 16.5875C24.8027 15.6195 26.8558 14.0578 26.8558 12.4156ZM20.255 9.03438C20.0675 9.68829 19.8339 10.3625 19.5706 11.0367C19.3628 10.6313 19.1449 10.2258 18.9066 9.82032C18.6683 9.41485 18.4246 9.01954 18.1769 8.63438C18.8964 8.73985 19.591 8.86875 20.255 9.03438ZM17.9332 14.4336C17.5378 15.118 17.1324 15.7672 16.7113 16.3703C15.9558 16.4359 15.1902 16.4719 14.4199 16.4719C13.6496 16.4719 12.8886 16.4367 12.1386 16.3758C11.7178 15.7727 11.3089 15.1305 10.9121 14.4492C10.5266 13.7852 10.1751 13.1125 9.85737 12.4313C10.1699 11.7516 10.5269 11.0727 10.9066 10.4086C11.3019 9.72423 11.7074 9.075 12.1285 8.47188C12.8839 8.40625 13.6496 8.37032 14.4199 8.37032C15.1902 8.37032 15.9511 8.40548 16.7011 8.46641C17.1219 9.06954 17.5308 9.71172 17.9277 10.393C18.3131 11.057 18.6647 11.7297 18.9824 12.4109C18.6636 13.0898 18.3121 13.7695 17.9332 14.4336ZM19.5738 13.7742C19.8472 14.4539 20.0808 15.1328 20.2769 15.7922C19.6128 15.9547 18.9128 16.0914 18.1878 16.1977C18.4363 15.807 18.6847 15.407 18.9175 14.9961C19.1503 14.5852 19.3628 14.1797 19.5706 13.7742H19.5738ZM14.4331 19.1836C13.9369 18.6672 13.4675 18.1256 13.0269 17.5609C13.4832 17.5813 13.9496 17.5961 14.4214 17.5961C14.8933 17.5961 15.3699 17.5859 15.8277 17.5609C15.3914 18.1267 14.9249 18.6683 14.43 19.1836H14.4331ZM10.6558 16.1977C9.93628 16.0914 9.24097 15.9633 8.57691 15.7969C8.76441 15.143 8.99799 14.4688 9.26127 13.7945C9.46909 14.2 9.68706 14.6055 9.92534 15.0109C10.1636 15.4164 10.4097 15.8125 10.6558 16.1977ZM14.4058 5.65078C14.9021 6.16721 15.3714 6.70881 15.8121 7.27344C15.3558 7.25313 14.8894 7.23829 14.4175 7.23829C13.9457 7.23829 13.4691 7.24844 13.0113 7.27344C13.4464 6.70674 13.912 6.16402 14.4058 5.64766V5.65078ZM10.6558 8.63673C10.4074 9.02735 10.1589 9.42735 9.92612 9.83829C9.6933 10.2492 9.47456 10.6492 9.26675 11.0547C8.99331 10.375 8.75971 9.6961 8.56361 9.03672C9.22846 8.88047 9.92847 8.73985 10.6558 8.6336V8.63673ZM6.06753 14.9836C4.27065 14.218 3.11205 13.2141 3.11205 12.418C3.11205 11.6219 4.273 10.6133 6.06753 9.85235C6.50346 9.66485 6.98003 9.49766 7.47378 9.34063C7.7839 10.3943 8.16497 11.4259 8.6144 12.4281C8.1697 13.4253 7.79357 14.4516 7.48862 15.5C6.98393 15.3438 6.5058 15.1664 6.06518 14.9805L6.06753 14.9836ZM8.79487 22.2281C8.10502 21.8328 7.80659 20.3274 8.0394 18.3906C8.09487 17.9141 8.18627 17.4125 8.29799 16.9C9.35773 17.1553 10.4333 17.3399 11.5175 17.4523C12.1635 18.3434 12.8682 19.1903 13.6269 19.9875C11.9746 21.5234 10.4238 22.3649 9.3683 22.3649C9.16782 22.3669 8.96996 22.3191 8.79252 22.2258L8.79487 22.2281ZM20.8199 18.3648C21.0542 20.3016 20.7644 21.807 20.08 22.2078C19.9012 22.3034 19.6998 22.349 19.4972 22.3399C18.448 22.3399 16.8917 21.5031 15.2386 19.9774C15.9936 19.183 16.6932 18.3378 17.3324 17.4477C18.4187 17.3363 19.496 17.1499 20.5566 16.8898C20.6696 17.3758 20.757 17.8674 20.8183 18.3625L20.8199 18.3648ZM22.773 14.9836C22.3371 15.1711 21.8605 15.3383 21.3667 15.4953C21.0566 14.4416 20.6755 13.4101 20.2261 12.4078C20.6708 11.4106 21.0469 10.3843 21.3519 9.33594C21.8535 9.49219 22.33 9.66563 22.7761 9.85313C24.573 10.6188 25.7316 11.6227 25.7316 12.4188C25.7316 13.2148 24.5597 14.2203 22.7699 14.9805L22.773 14.9836Z" fill="#61DAFB"/>
<path d="M14.6133 14.7328C15.8931 14.7328 16.9305 13.6954 16.9305 12.4156C16.9305 11.1359 15.8931 10.0984 14.6133 10.0984C13.3336 10.0984 12.2961 11.1359 12.2961 12.4156C12.2961 13.6954 13.3336 14.7328 14.6133 14.7328Z" fill="#61DAFB"/>
</svg>
