<svg width="159" height="37" viewBox="0 0 159 37" fill="none" xmlns="http://www.w3.org/2000/svg">
<path d="M53.5872 28.0596V15.7815H57.6951V12.2595H53.5872V11.4932C53.5872 10.4006 54.3207 9.96032 55.4453 9.96032C55.9835 9.96032 56.57 10.0419 57.0104 10.2213V6.96015C56.3258 6.66667 55.478 6.4873 54.4677 6.4873C51.191 6.4873 49.4959 8.26461 49.4959 11.3953V12.2595H46.3174V15.7815H49.5121V28.0596H53.5872ZM63.9379 28.0596V6.81341H59.7978V28.0596H63.9379Z" fill="black"/>
<path d="M77.0094 28.0592H80.3506V18.113C80.3506 14.2323 77.9221 11.9658 73.7815 11.9658C69.9676 11.9658 67.3433 14.3301 67.0987 17.9662H70.7988C70.9453 16.1889 72.005 15.1617 73.7815 15.1617C75.4931 15.1617 76.504 16.1889 76.504 17.9662V18.912C75.5259 18.7978 74.7597 18.7326 73.8797 18.7326C69.2664 18.7326 66.7891 20.3958 66.7891 23.4611C66.7891 26.4125 68.9734 28.3365 72.2657 28.3365C74.4173 28.3365 75.9986 27.5703 77.0255 26.0863L77.0094 28.0592ZM70.6523 23.3468C70.6523 21.9285 71.8096 21.1947 74.1404 21.1947C74.8573 21.1947 75.5259 21.26 76.504 21.4067V22.5318C76.504 24.3581 75.2324 25.5155 73.1296 25.5155C71.5977 25.5155 70.6523 24.6843 70.6523 23.3468Z" fill="black"/>
<path d="M99.6501 20.1674C99.6501 15.5204 96.8954 11.9658 92.6411 11.9658C90.636 11.9658 88.8921 12.8789 87.6694 14.5747V12.2594H83.8877V33.7662H87.9956V26.0214C89.1852 27.5537 90.783 28.3526 92.6411 28.3526C96.912 28.3526 99.6501 24.8308 99.6501 20.1674ZM95.4285 20.1674C95.4285 23.1842 93.7496 24.7004 91.7284 24.7004C89.7233 24.7004 88.0278 23.1676 88.0278 20.1674C88.0278 17.1673 89.7072 15.6182 91.7284 15.6182C93.7496 15.6019 95.4285 17.1999 95.4285 20.1674Z" fill="black"/>
<path d="M107.052 8.58948C107.052 7.13833 105.928 6.11108 104.297 6.11108C102.667 6.11108 101.542 7.13833 101.542 8.58948C101.542 9.97549 102.667 11.019 104.297 11.019C105.928 11.019 107.052 9.97549 107.052 8.58948ZM106.368 12.2583H102.292V27.879C102.292 29.6238 101.526 30.2757 100.434 30.2757C99.7496 30.2757 99.1627 30.1619 98.7227 29.9172V33.7325C99.4395 33.9933 100.206 34.0587 100.939 34.0587C104.068 34.0587 106.384 32.249 106.384 27.9932L106.368 12.2583Z" fill="black"/>
<path d="M119.44 28.0592H122.782V18.113C122.782 14.2323 120.353 11.9658 116.213 11.9658C112.399 11.9658 109.774 14.3301 109.529 17.9662H113.23C113.376 16.1889 114.437 15.1617 116.213 15.1617C117.924 15.1617 118.935 16.1889 118.935 17.9662V18.912C117.957 18.7978 117.191 18.7326 116.31 18.7326C111.698 18.7326 109.22 20.3958 109.22 23.4611C109.22 26.4125 111.404 28.3365 114.696 28.3365C116.849 28.3365 118.43 27.5703 119.456 26.0863L119.44 28.0592ZM113.083 23.3468C113.083 21.9285 114.241 21.1947 116.572 21.1947C117.289 21.1947 117.957 21.26 118.935 21.4067V22.5318C118.935 24.3581 117.664 25.5155 115.561 25.5155C114.029 25.5155 113.083 24.6843 113.083 23.3468Z" fill="black"/>
<path d="M132.986 28.3521C137.207 28.3521 140.174 25.6619 140.646 21.3083H136.327C136.082 23.4605 134.876 24.716 132.986 24.716C130.835 24.716 129.497 23.0039 129.497 20.1668C129.497 17.3623 130.851 15.6177 132.986 15.6177C134.844 15.6177 136.115 16.9221 136.327 19.0255H140.646C140.141 14.7698 137.093 11.9814 132.986 11.9814C128.552 11.9814 125.292 15.4383 125.292 20.1832C125.292 24.9768 128.438 28.3521 132.986 28.3521Z" fill="black"/>
<path d="M147.394 28.0581V20.7208L153.426 28.0581H158.657L151.355 19.8403L157.892 12.2746H153.165L147.394 18.9598V6.81226H143.287V28.0581H147.394Z" fill="black"/>
<path fill-rule="evenodd" clip-rule="evenodd" d="M20.691 36.4134C39.7274 36.0435 40.9598 28.4636 40.9598 26.7381C40.9598 25.0123 31.9033 23.5333 20.691 23.5333C9.47818 23.5333 0.421875 24.951 0.421875 26.7381C0.421875 28.5253 1.654 36.783 20.691 36.4134Z" fill="#FECB80"/>
<path d="M20.6901 33.2081C31.918 33.2081 41.0202 30.0899 41.0202 26.2442C41.0202 22.398 31.918 19.2802 20.6901 19.2802C9.46162 19.2802 0.359375 22.398 0.359375 26.2442C0.359375 30.0899 9.46162 33.2081 20.6901 33.2081Z" fill="#EE6D01"/>
<path fill-rule="evenodd" clip-rule="evenodd" d="M20.691 30.0029C39.7274 29.6334 40.9598 22.0533 40.9598 20.3277C40.9598 18.6022 31.9033 17.1232 20.691 17.1232C9.47818 17.1232 0.421875 18.5406 0.421875 20.3277C0.421875 22.0533 1.654 30.3112 20.691 30.0029Z" fill="#FECB80"/>
<path d="M20.6901 26.7994C31.918 26.7994 41.0202 23.6817 41.0202 19.8358C41.0202 15.9897 31.918 12.8719 20.6901 12.8719C9.46162 12.8719 0.359375 15.9897 0.359375 19.8358C0.359375 23.6817 9.46162 26.7994 20.6901 26.7994Z" fill="#EE6D01"/>
<path fill-rule="evenodd" clip-rule="evenodd" d="M20.691 23.5319C39.7274 23.1619 40.9598 15.5819 40.9598 13.8563C40.9598 12.1308 31.9033 10.6517 20.691 10.6517C9.47818 10.6517 0.421875 12.1308 0.421875 13.8563C0.421875 15.5819 1.654 23.9014 20.691 23.5319Z" fill="#FECB80"/>
<path d="M20.6901 20.4504C31.918 20.4504 41.0202 17.3326 41.0202 13.4866C41.0202 9.6405 31.918 6.52271 20.6901 6.52271C9.46162 6.52271 0.359375 9.6405 0.359375 13.4866C0.359375 17.3326 9.46162 20.4504 20.6901 20.4504Z" fill="#EE6D01"/>
<path fill-rule="evenodd" clip-rule="evenodd" d="M20.691 17.1232C39.7274 16.7534 40.9598 9.17369 40.9598 7.44813C40.9598 5.72261 31.9033 4.24353 20.691 4.24353C9.47818 4.24353 0.421875 5.66096 0.421875 7.44813C0.421875 9.23534 1.654 17.4929 20.691 17.1232Z" fill="#FECB80"/>
<path d="M20.6897 14.0422C31.9181 14.0422 41.0203 10.9243 41.0203 7.07825C41.0203 3.23222 31.9181 0.11438 20.6897 0.11438C9.46162 0.11438 0.359375 3.23222 0.359375 7.07825C0.359375 10.9243 9.46162 14.0422 20.6897 14.0422Z" fill="#EE6D01"/>
<path fill-rule="evenodd" clip-rule="evenodd" d="M20.6904 3.38062C27.1595 3.38062 32.5808 4.73645 33.3816 6.52361C33.4433 6.64686 33.5051 6.83175 33.5051 7.01664C33.5051 8.7422 30.7324 9.29683 29.1922 9.97475C28.6997 10.2213 28.3297 10.8376 28.2067 11.4539V27.292C28.2067 28.7709 27.036 30.0034 25.5575 30.0034H25.4958C24.0173 30.0034 22.7853 28.7709 22.7853 27.292V12.6864C22.4771 10.5911 19.3968 9.72821 18.5342 12.6864V17.37C18.5342 18.8491 17.3637 20.0816 15.8852 20.0816H15.8236C14.3449 20.0816 13.1128 18.9107 13.1128 17.4317V11.5155C13.1128 10.8992 12.8047 10.4062 12.127 9.9131C10.8333 9.42008 7.81453 8.68056 7.75293 7.01664V6.8934C7.93777 4.98294 13.6673 3.38062 20.6904 3.38062Z" fill="#BF360B"/>
</svg>
