<svg width="26" height="25" viewBox="0 0 26 25" fill="none" xmlns="http://www.w3.org/2000/svg">
<g clip-path="url(#clip0_736_1870)">
<path d="M2.96982 8.89219H6.67764C7.11749 8.85596 7.55978 8.9217 7.97008 9.0843C8.38038 9.24691 8.74763 9.50198 9.04326 9.82969C9.29778 10.1938 9.47249 10.6076 9.55597 11.044C9.63944 11.4803 9.62978 11.9294 9.52764 12.3617C9.46014 12.8607 9.31544 13.3462 9.09873 13.8008C8.88367 14.2754 8.58369 14.7067 8.21357 15.0734C7.8173 15.5122 7.30349 15.8281 6.73311 15.9836C6.19865 16.1138 5.65039 16.1789 5.10029 16.1773H3.44014L2.91436 18.8117H0.991699L2.96982 8.88985M4.58545 10.4695L3.75889 14.6195C3.81362 14.6287 3.86901 14.6334 3.92451 14.6336H4.1167C4.86356 14.6603 5.61008 14.5718 6.32998 14.3711C6.92008 14.1773 7.3167 13.5042 7.51982 12.3516C7.68597 11.3833 7.52008 10.8253 7.02217 10.6773C6.42272 10.5165 5.80255 10.4464 5.18232 10.4695C5.07191 10.4789 4.96592 10.4836 4.86436 10.4836H4.57451L4.58857 10.4695" fill="black"/>
<path d="M11.7183 6.25H13.6276L13.0878 8.89219H14.8065C15.5521 8.85291 16.2901 9.0569 16.9097 9.47344C17.3784 9.84219 17.5167 10.5432 17.3245 11.5766L16.3972 16.1828H14.4573L15.3425 11.7836C15.3959 11.6228 15.4162 11.4529 15.4019 11.2841C15.3877 11.1153 15.3393 10.9511 15.2597 10.8016C15.1317 10.6858 14.9798 10.5998 14.8148 10.5495C14.6498 10.4993 14.4757 10.4861 14.305 10.5109L12.769 10.4969L11.6315 16.1828H9.72607L11.7183 6.25Z" fill="black"/>
<path d="M19.3707 8.89219H23.0785C23.5184 8.85596 23.9607 8.9217 24.371 9.0843C24.7813 9.24691 25.1485 9.50198 25.4441 9.82969C25.6987 10.1938 25.8734 10.6076 25.9568 11.044C26.0403 11.4803 26.0307 11.9294 25.9285 12.3617C25.861 12.8608 25.7163 13.3462 25.4996 13.8008C25.2846 14.2754 24.9846 14.7067 24.6145 15.0734C24.2182 15.5122 23.7044 15.8281 23.134 15.9836C22.5995 16.1138 22.0513 16.1789 21.5012 16.1773H19.841L19.3152 18.8063H17.3926L19.3707 8.88438M20.9895 10.4617L20.1598 14.6117C20.2145 14.6209 20.2699 14.6256 20.3254 14.6258H20.5191C21.266 14.6525 22.0125 14.564 22.7324 14.3633C23.3225 14.1695 23.7191 13.4964 23.9223 12.3438C24.0884 11.3755 23.9225 10.8175 23.4246 10.6695C22.8252 10.5087 22.205 10.4386 21.5848 10.4617C21.4738 10.4711 21.3678 10.4758 21.2668 10.4758H20.9762L20.9902 10.4617" fill="black"/>
</g>
<defs>
<clipPath id="clip0_736_1870">
<rect width="25" height="25" fill="white" transform="translate(0.991699)"/>
</clipPath>
</defs>
</svg>
