<svg width="27" height="25" viewBox="0 0 27 25" fill="none" xmlns="http://www.w3.org/2000/svg">
<path d="M26.0709 12.4156C26.0709 10.768 24.0076 9.20626 20.8443 8.23829C21.574 5.01407 21.2498 2.44845 19.8201 1.62735C19.4736 1.433 19.0814 1.33507 18.6842 1.34376V2.47423C18.885 2.46794 19.0841 2.51341 19.2623 2.60626C19.9521 3.00157 20.2506 4.50704 20.0178 6.44376C19.9623 6.92032 19.8709 7.42188 19.7592 7.93438C18.6994 7.67905 17.6239 7.49453 16.5396 7.38204C15.8937 6.49097 15.189 5.64404 14.4303 4.84688C16.0834 3.31094 17.6334 2.46954 18.6889 2.46954V1.33829C17.2943 1.33829 15.4693 2.33203 13.624 4.05547C11.7787 2.34219 9.95215 1.3586 8.55918 1.3586V2.48907C9.6084 2.48907 11.1646 3.32579 12.8178 4.85157C12.0628 5.64589 11.3632 6.4911 10.724 7.38126C9.6377 7.4926 8.56039 7.67898 7.4998 7.93907C7.38339 7.43204 7.29667 6.94063 7.23651 6.46876C7.00214 4.53204 7.29199 3.02657 7.97636 2.62579C8.15523 2.53019 8.35657 2.48457 8.55918 2.49375V1.36329C8.15877 1.3546 7.76324 1.45247 7.41309 1.64688C5.98809 2.46797 5.66934 5.02813 6.40449 8.24219C3.25137 9.21563 1.19824 10.7719 1.19824 12.4149C1.19824 14.0578 3.26153 15.6242 6.42481 16.5922C5.69512 19.8164 6.01933 22.382 7.44902 23.2031C7.797 23.398 8.19091 23.4959 8.58965 23.4867C9.98418 23.4867 11.8092 22.493 13.6545 20.7695C15.4998 22.4828 17.3264 23.4664 18.7193 23.4664C19.1197 23.4751 19.5153 23.3772 19.8654 23.1828C21.2904 22.3617 21.6092 19.8016 20.874 16.5875C24.0178 15.6195 26.0709 14.0578 26.0709 12.4156ZM19.4701 9.03438C19.2826 9.68829 19.049 10.3625 18.7857 11.0367C18.5779 10.6313 18.36 10.2258 18.1217 9.82032C17.8834 9.41485 17.6396 9.01954 17.392 8.63438C18.1115 8.73985 18.8061 8.86875 19.4701 9.03438ZM17.1482 14.4336C16.7529 15.118 16.3475 15.7672 15.9264 16.3703C15.1709 16.4359 14.4053 16.4719 13.635 16.4719C12.8646 16.4719 12.1037 16.4367 11.3537 16.3758C10.9329 15.7727 10.524 15.1305 10.1271 14.4492C9.74173 13.7852 9.39017 13.1125 9.07246 12.4313C9.38496 11.7516 9.74199 11.0727 10.1217 10.4086C10.517 9.72423 10.9225 9.075 11.3435 8.47188C12.099 8.40625 12.8646 8.37032 13.635 8.37032C14.4053 8.37032 15.1662 8.40548 15.9162 8.46641C16.337 9.06954 16.7459 9.71172 17.1428 10.393C17.5282 11.057 17.8797 11.7297 18.1975 12.4109C17.8787 13.0898 17.5271 13.7695 17.1482 14.4336ZM18.7889 13.7742C19.0623 14.4539 19.2959 15.1328 19.492 15.7922C18.8279 15.9547 18.1279 16.0914 17.4029 16.1977C17.6514 15.807 17.8998 15.407 18.1326 14.9961C18.3654 14.5852 18.5779 14.1797 18.7857 13.7742H18.7889ZM13.6482 19.1836C13.152 18.6672 12.6826 18.1256 12.242 17.5609C12.6982 17.5813 13.1646 17.5961 13.6365 17.5961C14.1084 17.5961 14.585 17.5859 15.0428 17.5609C14.6065 18.1267 14.1399 18.6683 13.6451 19.1836H13.6482ZM9.8709 16.1977C9.15137 16.0914 8.45606 15.9633 7.79199 15.7969C7.97949 15.143 8.21308 14.4688 8.47636 13.7945C8.68418 14.2 8.90215 14.6055 9.14043 15.0109C9.37871 15.4164 9.6248 15.8125 9.8709 16.1977ZM13.6209 5.65078C14.1172 6.16721 14.5865 6.70881 15.0271 7.27344C14.5709 7.25313 14.1045 7.23829 13.6326 7.23829C13.1607 7.23829 12.6842 7.24844 12.2264 7.27344C12.6615 6.70674 13.127 6.16402 13.6209 5.64766V5.65078ZM9.8709 8.63673C9.62246 9.02735 9.37402 9.42735 9.1412 9.83829C8.90839 10.2492 8.68965 10.6492 8.48183 11.0547C8.2084 10.375 7.9748 9.6961 7.7787 9.03672C8.44355 8.88047 9.14355 8.73985 9.8709 8.6336V8.63673ZM5.28261 14.9836C3.48574 14.218 2.32714 13.2141 2.32714 12.418C2.32714 11.6219 3.48808 10.6133 5.28261 9.85235C5.71855 9.66485 6.19512 9.49766 6.68887 9.34063C6.99899 10.3943 7.38006 11.4259 7.82949 12.4281C7.38479 13.4253 7.00866 14.4516 6.70371 15.5C6.19902 15.3438 5.72089 15.1664 5.28027 14.9805L5.28261 14.9836ZM8.00996 22.2281C7.32011 21.8328 7.02168 20.3274 7.25449 18.3906C7.30996 17.9141 7.40136 17.4125 7.51308 16.9C8.57281 17.1553 9.64837 17.3399 10.7326 17.4523C11.3785 18.3434 12.0832 19.1903 12.842 19.9875C11.1896 21.5234 9.63886 22.3649 8.58339 22.3649C8.38291 22.3669 8.18505 22.3191 8.00761 22.2258L8.00996 22.2281ZM20.035 18.3648C20.2693 20.3016 19.9795 21.807 19.2951 22.2078C19.1162 22.3034 18.9149 22.349 18.7123 22.3399C17.6631 22.3399 16.1068 21.5031 14.4537 19.9774C15.2087 19.183 15.9083 18.3378 16.5475 17.4477C17.6338 17.3363 18.7111 17.1499 19.7717 16.8898C19.8847 17.3758 19.9721 17.8674 20.0334 18.3625L20.035 18.3648ZM21.9881 14.9836C21.5521 15.1711 21.0756 15.3383 20.5818 15.4953C20.2717 14.4416 19.8906 13.4101 19.4412 12.4078C19.8859 11.4106 20.262 10.3843 20.567 9.33594C21.0685 9.49219 21.5451 9.66563 21.9912 9.85313C23.7881 10.6188 24.9467 11.6227 24.9467 12.4188C24.9467 13.2148 23.7748 14.2203 21.985 14.9805L21.9881 14.9836Z" fill="#258AFF"/>
<path d="M13.6302 14.7328C14.9099 14.7328 15.9474 13.6954 15.9474 12.4156C15.9474 11.1359 14.9099 10.0984 13.6302 10.0984C12.3504 10.0984 11.313 11.1359 11.313 12.4156C11.313 13.6954 12.3504 14.7328 13.6302 14.7328Z" fill="#258AFF"/>
</svg>
