<svg width="136" height="49" viewBox="0 0 136 49" fill="none" xmlns="http://www.w3.org/2000/svg">
<g clip-path="url(#clip0_8152_8490)">
<path d="M98.4337 14.5516H95.7616V34.5575H106.602V32.0731H98.4337V14.5516ZM116.921 31.0489C116.248 31.7462 115.118 32.4436 113.597 32.4436C111.555 32.4436 110.73 31.4411 110.73 30.1118C110.73 28.1286 112.098 27.1697 115.031 27.1697C115.574 27.1697 116.465 27.2351 116.921 27.3223V31.0489ZM114.162 18.932C111.99 18.932 110.013 19.6947 108.47 20.9805L109.426 22.6368C110.512 22.0048 111.859 21.351 113.793 21.351C115.987 21.351 116.965 22.4842 116.965 24.3802V25.3609C116.53 25.2737 115.661 25.2083 115.096 25.2083C110.404 25.2083 108.036 26.8646 108.036 30.3079C108.036 33.4025 109.926 34.9498 112.794 34.9498C114.727 34.9498 116.574 34.0563 117.204 32.6179L117.682 34.5793H119.572V24.3366C119.55 21.0895 118.138 18.932 114.162 18.932ZM128.196 32.5526C127.197 32.5526 126.306 32.4218 125.633 32.1167V22.8765C126.545 22.1137 127.675 21.5689 129.109 21.5689C131.694 21.5689 132.693 23.3995 132.693 26.3634C132.715 30.5694 131.086 32.5526 128.196 32.5526ZM129.326 18.932C126.936 18.932 125.633 20.5664 125.633 20.5664V17.9731V14.5516H123.004V34.0781C124.308 34.6229 126.111 34.928 128.066 34.928C133.062 34.928 135.474 31.7244 135.474 26.189C135.474 21.8304 133.258 18.932 129.326 18.932ZM69.2795 16.7309C71.6474 16.7309 73.1899 17.5154 74.1892 18.3218L75.3406 16.3168C73.7764 14.9438 71.6474 14.2029 69.4098 14.2029C63.718 14.2029 59.7207 17.6898 59.7207 24.7071C59.7207 32.0731 64.0221 34.9498 68.9536 34.9498C71.4302 34.9498 73.5157 34.3614 74.8844 33.7948L74.8192 25.9275V23.4213H67.4981V25.9057H72.1688L72.234 31.877C71.6257 32.1821 70.5612 32.4218 69.1274 32.4218C65.1735 32.4218 62.5232 29.9156 62.5232 24.6635C62.5232 19.3242 65.2604 16.7309 69.2795 16.7309ZM88.1363 14.5516H85.5076V17.9077V29.5233C85.5076 32.7705 86.9197 34.928 90.8953 34.928C91.4384 34.928 91.9815 34.8844 92.5029 34.7755V32.4218C92.1336 32.4872 91.7208 32.509 91.2863 32.509C89.0922 32.509 88.1146 31.3757 88.1146 29.4798V21.4817H92.5029V19.3024H88.1146L88.1363 14.5516ZM78.86 34.5575H81.4886V19.3024H78.86V34.5575ZM78.86 17.1885H81.4886V14.5516H78.86V17.1885Z" fill="#888F9B"/>
<path d="M23.8099 46.5L32.5866 19.4331H15.0332L23.8099 46.5Z" fill="#D74B3A"/>
<path d="M23.8098 46.5L15.0331 19.4331H2.75879L23.8098 46.5Z" fill="#F36F3C"/>
<path d="M2.7597 19.4331L0.0875885 27.6491C-0.15138 28.39 0.109313 29.2181 0.739322 29.6758L23.789 46.4782L2.7597 19.4331Z" fill="#F3993F"/>
<path d="M2.75879 19.4331H15.0548L9.75406 3.13195C9.49337 2.28203 8.29852 2.28203 8.03783 3.13195L2.75879 19.4331Z" fill="#D74B3A"/>
<path d="M23.8096 46.5L32.5863 19.4331H44.8823L23.8096 46.5Z" fill="#F36F3C"/>
<path d="M44.8613 19.4331L47.5334 27.6491C47.7724 28.39 47.5117 29.2181 46.8817 29.6758L23.832 46.4782L44.8613 19.4331Z" fill="#F3993F"/>
<path d="M44.8615 19.4331H32.5654L37.8445 3.13196C38.1269 2.30383 39.3 2.30383 39.5607 3.13196L44.8615 19.4331Z" fill="#D74B3A"/>
</g>
<defs>
<clipPath id="clip0_8152_8490">
<rect width="136" height="48" fill="white" transform="translate(0 0.5)"/>
</clipPath>
</defs>
</svg>
