<?xml version="1.0" encoding="utf-8"?>
<!-- Generator: Adobe Illustrator 16.0.0, SVG Export Plug-In . SVG Version: 6.00 Build 0)  -->
<!DOCTYPE svg PUBLIC "-//W3C//DTD SVG 1.1//EN" "http://www.w3.org/Graphics/SVG/1.1/DTD/svg11.dtd">
<svg version="1.1" id="Layer_1" xmlns="http://www.w3.org/2000/svg" xmlns:xlink="http://www.w3.org/1999/xlink" x="0px" y="0px"
	 width="26px" height="24px" viewBox="0 0 26 24" enable-background="new 0 0 26 24" xml:space="preserve">
<path fill="#2DAADB" d="M24.873,15.328c-0.078-0.391-0.547-0.625-0.938-0.547c-0.547,0.156-0.938,0-1.017-0.156s0-0.547,0.392-1.016
	c0.313-0.313,0.313-0.781,0-1.094c-0.781-0.782-1.72-1.329-2.813-1.642c-0.392-0.078-0.858,0.156-0.938,0.547
	c-0.156,0.547-0.469,0.781-0.703,0.781c-0.233,0-0.469-0.313-0.703-0.781c-0.155-0.391-0.547-0.625-0.938-0.547
	c-1.094,0.313-2.031,0.859-2.813,1.642c-0.313,0.313-0.313,0.78,0,1.094c0.391,0.391,0.469,0.781,0.391,1.016
	c-0.078,0.156-0.469,0.313-1.016,0.156c-0.391-0.078-0.859,0.156-0.938,0.547c-0.156,0.547-0.234,1.094-0.234,1.641
	s0.078,1.094,0.234,1.641c0.078,0.392,0.547,0.625,0.938,0.548c0.547-0.156,0.938,0,1.016,0.155c0.078,0.156,0,0.547-0.391,1.017
	c-0.313,0.313-0.313,0.78,0,1.094c0.781,0.781,1.719,1.328,2.813,1.642c0.078,0,0.156,0,0.234,0c0.313,0,0.625-0.234,0.781-0.547
	c0.156-0.548,0.469-0.781,0.703-0.781c0.233,0,0.469,0.313,0.703,0.781c0.155,0.391,0.547,0.625,0.938,0.547
	c1.094-0.313,2.031-0.859,2.813-1.642c0.313-0.313,0.313-0.78,0-1.094c-0.391-0.392-0.469-0.781-0.391-1.017
	c0.078-0.155,0.469-0.313,1.016-0.155c0.391,0.077,0.859-0.156,0.938-0.548c0.155-0.547,0.233-1.094,0.233-1.641
	S25.029,15.875,24.873,15.328z M18.857,20.094c-1.719,0-3.125-1.406-3.125-3.125s1.406-3.125,3.125-3.125s3.125,1.406,3.125,3.125
	S20.576,20.094,18.857,20.094z"/>
<path fill="#2DAADB" d="M11.045,16.969c0-0.938,0.156-1.797,0.469-2.578c0-0.078,0-0.078,0-0.156l0.078-0.077
	c0.391-0.938,0.859-1.719,1.484-2.422c0.078-0.313,0.156-0.547,0.234-0.859c0-0.234,0-0.469-0.156-0.625
	c-0.156-0.156-0.391-0.313-0.625-0.313c-0.859,0-1.641-0.313-2.266-0.781h4.688c0.469,0,0.781-0.313,0.781-0.781
	s-0.313-0.781-0.781-0.781h-0.156V7.438c0-1.406-0.469-2.656-1.25-3.75l-0.547,1.953c-0.078,0.313-0.391,0.547-0.781,0.547
	c-0.078,0-0.156,0-0.234,0c-0.391-0.156-0.625-0.547-0.547-0.938l0.938-3.203c0-0.234-0.156-0.469-0.391-0.625
	c-2.031-1.016-4.453-1.016-6.484,0c-0.313,0-0.391,0.313-0.469,0.547l0.938,3.203C6.123,5.563,5.811,6.031,5.42,6.109
	c-0.078,0-0.156,0-0.234,0c-0.313,0-0.625-0.234-0.781-0.547L3.936,3.688c-0.781,1.094-1.25,2.344-1.25,3.75v0.156H2.451
	c-0.469,0-0.781,0.313-0.781,0.781s0.313,0.781,0.781,0.781h1.563v0.781c0,1.719,0.703,3.281,1.875,4.297
	c-0.156,1.094-0.859,2.031-1.953,2.344c-1.953,0.547-3.438,2.266-3.906,4.453c-0.078,0.391,0,0.703,0.234,1.016
	c0.313,0.234,0.625,0.391,1.016,0.391h12.031C11.904,21.031,11.045,19.078,11.045,16.969z"/>
</svg>
