<svg width="26" height="25" viewBox="0 0 26 25" fill="none" xmlns="http://www.w3.org/2000/svg">
<g clip-path="url(#clip0_736_1892)">
<path d="M12.5783 0L0.884521 4.11484L2.73218 19.4352L12.59 24.8531L22.4986 19.3617L24.3462 4.04219L12.5783 0Z" fill="#B3B3B3"/>
<path d="M23.1799 4.92813L12.5549 1.30313V23.5594L21.4612 18.6297L23.1799 4.92813Z" fill="#A6120D"/>
<path d="M2.19702 4.99296L3.78062 18.6945L12.5509 23.5586V1.30234L2.19702 4.99296Z" fill="#DD1B16"/>
<path d="M15.476 13.1508L12.5502 14.5187H9.46665L8.01665 18.1445L5.32056 18.1945L12.5502 2.11093L15.476 13.1508ZM15.1932 12.4617L12.5698 7.26796L10.4174 12.3727H12.5502L15.1932 12.4625V12.4617Z" fill="#F2F2F2"/>
<path d="M12.55 2.11093L12.5696 7.26718L15.0118 12.3758H12.5563L12.5508 14.5125H15.9469L17.5336 18.1891L20.1118 18.2367L12.55 2.11093Z" fill="#B3B3B3"/>
</g>
<defs>
<clipPath id="clip0_736_1892">
<rect width="25" height="25" fill="white" transform="translate(0.189941)"/>
</clipPath>
</defs>
</svg>
