<?xml version="1.0" encoding="utf-8"?>
<!-- Generator: Adobe Illustrator 16.0.0, SVG Export Plug-In . SVG Version: 6.00 Build 0)  -->
<!DOCTYPE svg PUBLIC "-//W3C//DTD SVG 1.1//EN" "http://www.w3.org/Graphics/SVG/1.1/DTD/svg11.dtd">
<svg version="1.1" id="Layer_1" xmlns="http://www.w3.org/2000/svg" xmlns:xlink="http://www.w3.org/1999/xlink" x="0px" y="0px"
	 width="26px" height="25px" viewBox="0 0 26 25" enable-background="new 0 0 26 25" xml:space="preserve">
<g>
	<defs>
		<rect id="SVGID_1_" x="0.958" width="25" height="25"/>
	</defs>
	<clipPath id="SVGID_2_">
		<use xlink:href="#SVGID_1_"  overflow="visible"/>
	</clipPath>
	<g clip-path="url(#SVGID_2_)">
		<path fill="#E2725A" d="M13.447,16.201c-1.721,0-3.121-1.399-3.121-3.12v-1.541c0-0.99,0.806-1.795,1.796-1.795h2.649
			c0.99,0,1.796,0.806,1.796,1.795v1.541C16.567,14.801,15.168,16.201,13.447,16.201z M12.122,10.331
			c-0.667,0-1.21,0.542-1.21,1.209v1.541c0,1.397,1.137,2.534,2.535,2.534c1.397,0,2.535-1.137,2.535-2.534v-1.541
			c0-0.667-0.543-1.209-1.21-1.209H12.122z"/>
		<path fill="#E2725A" d="M12.057,10.333c-0.674,0-0.359-2.289,1.39-2.289c1.764,0,2.067,2.322,1.377,2.288L12.057,10.333z
			 M12.321,9.745h2.251C14.56,8.277,12.334,8.277,12.321,9.745z"/>
		<path fill="#E2725A" d="M16.988,10.879h-1.058c-0.386,0-0.386-0.586,0-0.586h0.765V8.262c0-0.385,0.586-0.386,0.586,0v2.324
			C17.281,10.748,17.15,10.879,16.988,10.879L16.988,10.879z"/>
		<path fill="#E2725A" d="M10.964,10.879H9.896c-0.162,0-0.293-0.131-0.293-0.293V8.262c0-0.386,0.586-0.386,0.586,0v2.031
			c0.503,0,1.068-0.107,1.068,0.293C11.257,10.748,11.126,10.879,10.964,10.879L10.964,10.879z"/>
		<path fill="#E2725A" d="M17.754,13.321c-0.211,0-0.581-0.465-0.828-0.718c-0.414,0-0.922,0.094-0.922-0.293
			c0-0.398,0.556-0.293,1.044-0.293c0.216,0,0.653,0.539,0.914,0.805C18.145,13.008,18.011,13.321,17.754,13.321z"/>
		<path fill="#E2725A" d="M16.996,17.031c-0.162,0-0.293-0.131-0.293-0.293l0.001-2.031c-0.497,0-1.059,0.107-1.059-0.293
			c0-0.161,0.132-0.293,0.293-0.293c0.376,0,1.112-0.066,1.266,0.086c0.055,0.055,0.086,0.13,0.086,0.207l-0.001,2.324
			C17.289,16.9,17.158,17.031,16.996,17.031z"/>
		<path fill="#E2725A" d="M9.887,17.031c-0.162,0-0.293-0.131-0.293-0.293v-2.324c0-0.162,0.131-0.293,0.293-0.293h1.068
			c0.386,0,0.386,0.586,0,0.586H10.18v2.031C10.18,16.9,10.049,17.031,9.887,17.031L9.887,17.031z"/>
		<path fill="#E2725A" d="M9.163,13.321c-0.258,0-0.392-0.313-0.209-0.498c0.95-0.967,0.566-0.805,1.666-0.805
			c0.385,0,0.385,0.585,0,0.585H9.991C9.743,12.856,9.374,13.321,9.163,13.321z"/>
		<path fill="#E2725A" d="M13.447,16.201c-0.162,0-0.293-0.131-0.293-0.293v-5.87c0-0.386,0.586-0.386,0.586,0v5.87
			C13.74,16.07,13.608,16.201,13.447,16.201L13.447,16.201z"/>
		<path fill="#E2725A" d="M13.458,19.68c-3.958,0-7.179-3.221-7.179-7.18c0-3.958,3.221-7.179,7.179-7.179
			c3.958,0,7.179,3.221,7.179,7.179C20.637,16.459,17.416,19.68,13.458,19.68z M13.458,5.907c-3.636,0-6.593,2.958-6.593,6.593
			s2.958,6.594,6.593,6.594s6.593-2.958,6.593-6.594S17.094,5.907,13.458,5.907z"/>
		<path fill="#E2725A" d="M13.458,5.907c-0.162,0-0.293-0.131-0.293-0.293V2.928c0-0.386,0.586-0.386,0.586,0v2.686
			C13.751,5.775,13.619,5.907,13.458,5.907L13.458,5.907z"/>
		<path fill="#E2725A" d="M10.9,6.397c-0.162,0-0.293-0.131-0.293-0.293V1.688c0-0.385,0.586-0.385,0.586,0v4.416
			C11.193,6.266,11.062,6.397,10.9,6.397L10.9,6.397z"/>
		<path fill="#E2725A" d="M16.016,6.397c-0.162,0-0.293-0.131-0.293-0.293V1.688c0-0.385,0.586-0.385,0.586,0v4.416
			C16.309,6.266,16.178,6.397,16.016,6.397L16.016,6.397z"/>
		<path fill="#E2725A" d="M10.9,1.981c-1.303,0-1.302-1.979,0-1.979C12.203,0.002,12.203,1.981,10.9,1.981z M10.9,0.588
			c-0.532,0-0.532,0.808,0,0.808S11.432,0.588,10.9,0.588z"/>
		<path fill="#E2725A" d="M13.458,3.221c-1.303,0-1.303-1.979,0-1.979S14.761,3.221,13.458,3.221z M13.458,1.827
			c-0.532,0-0.531,0.808,0,0.808S13.989,1.827,13.458,1.827z"/>
		<path fill="#E2725A" d="M16.016,1.981c-1.303,0-1.303-1.979,0-1.979S17.318,1.981,16.016,1.981z M16.016,0.588
			c-0.531,0-0.531,0.808,0,0.808S16.547,0.588,16.016,0.588z"/>
		<path fill="#E2725A" d="M23.03,12.793h-2.687c-0.385,0-0.385-0.586,0-0.586h2.687C23.416,12.207,23.416,12.793,23.03,12.793z"/>
		<path fill="#E2725A" d="M24.27,10.235h-4.416c-0.386,0-0.385-0.586,0-0.586h4.416C24.654,9.649,24.654,10.235,24.27,10.235z"/>
		<path fill="#E2725A" d="M24.27,15.351h-4.416c-0.386,0-0.385-0.585,0-0.585h4.416C24.654,14.766,24.654,15.351,24.27,15.351z"/>
		<path fill="#E2725A" d="M24.966,10.932c-1.303,0-1.303-1.98,0-1.98S26.269,10.932,24.966,10.932z M24.966,9.538
			c-0.532,0-0.531,0.808,0,0.808S25.498,9.538,24.966,9.538z"/>
		<path fill="#E2725A" d="M23.727,13.49c-1.303,0-1.303-1.98,0-1.98S25.029,13.49,23.727,13.49z M23.727,12.096
			c-0.531,0-0.531,0.808,0,0.808S24.258,12.096,23.727,12.096z"/>
		<path fill="#E2725A" d="M24.966,16.047c-1.303,0-1.303-1.979,0-1.979C26.268,14.068,26.269,16.047,24.966,16.047z M24.966,14.654
			c-0.532,0-0.531,0.807,0,0.807S25.498,14.654,24.966,14.654z"/>
		<path fill="#E2725A" d="M13.458,22.365c-0.162,0-0.293-0.131-0.293-0.293v-2.686c0-0.387,0.586-0.386,0.586,0v2.686
			C13.751,22.234,13.619,22.365,13.458,22.365L13.458,22.365z"/>
		<path fill="#E2725A" d="M16.016,23.604c-0.162,0-0.293-0.131-0.293-0.293v-4.415c0-0.386,0.586-0.386,0.586,0v4.415
			C16.309,23.473,16.178,23.604,16.016,23.604L16.016,23.604z"/>
		<path fill="#E2725A" d="M10.9,23.604c-0.162,0-0.293-0.131-0.293-0.293v-4.415c0-0.386,0.586-0.386,0.586,0v4.415
			C11.193,23.473,11.062,23.604,10.9,23.604L10.9,23.604z"/>
		<path fill="#E2725A" d="M16.016,24.998c-1.303,0-1.303-1.98,0-1.98S17.318,24.998,16.016,24.998z M16.016,23.604
			c-0.531,0-0.531,0.809,0,0.809S16.547,23.604,16.016,23.604z"/>
		<path fill="#E2725A" d="M13.458,23.76c-1.303,0-1.303-1.98,0-1.98C14.76,21.779,14.761,23.76,13.458,23.76z M13.458,22.365
			c-0.532,0-0.532,0.808,0,0.808C13.989,23.173,13.989,22.365,13.458,22.365z"/>
		<path fill="#E2725A" d="M10.9,24.998c-1.302,0-1.302-1.98,0-1.98C12.203,23.018,12.203,24.998,10.9,24.998z M10.9,23.604
			c-0.531,0-0.531,0.809,0,0.809C11.432,24.412,11.432,23.604,10.9,23.604z"/>
		<path fill="#E2725A" d="M6.572,12.793H3.886c-0.385,0-0.386-0.586,0-0.586h2.686C6.958,12.207,6.958,12.793,6.572,12.793z"/>
		<path fill="#E2725A" d="M7.062,15.351H2.646c-0.385,0-0.385-0.585,0-0.585h4.416C7.448,14.766,7.448,15.351,7.062,15.351z"/>
		<path fill="#E2725A" d="M7.062,10.235H2.646c-0.385,0-0.385-0.586,0-0.586h4.416C7.448,9.649,7.448,10.235,7.062,10.235z"/>
		<path fill="#E2725A" d="M1.95,16.047c-1.302,0-1.302-1.979,0-1.979C3.252,14.068,3.252,16.047,1.95,16.047z M1.95,14.654
			c-0.531,0-0.531,0.807,0,0.807C2.481,15.461,2.481,14.654,1.95,14.654z"/>
		<path fill="#E2725A" d="M3.189,13.49c-1.303,0-1.303-1.98,0-1.98S4.492,13.49,3.189,13.49z M3.189,12.096
			c-0.532,0-0.532,0.808,0,0.808S3.72,12.096,3.189,12.096z"/>
		<path fill="#E2725A" d="M1.95,10.932c-1.303,0-1.303-1.98,0-1.98S3.253,10.932,1.95,10.932z M1.95,9.538
			c-0.532,0-0.532,0.808,0,0.808C2.481,10.346,2.482,9.538,1.95,9.538z"/>
	</g>
</g>
</svg>
