<?xml version="1.0" encoding="utf-8"?>
<!-- Generator: Adobe Illustrator 16.0.0, SVG Export Plug-In . SVG Version: 6.00 Build 0)  -->
<!DOCTYPE svg PUBLIC "-//W3C//DTD SVG 1.1//EN" "http://www.w3.org/Graphics/SVG/1.1/DTD/svg11.dtd">
<svg version="1.1" id="Layer_1" xmlns="http://www.w3.org/2000/svg" xmlns:xlink="http://www.w3.org/1999/xlink" x="0px" y="0px"
	 width="26px" height="25px" viewBox="0 0 26 25" enable-background="new 0 0 26 25" xml:space="preserve">
<path fill="#258AFF" d="M2.177,2.6c0,0.409-0.158,0.711-0.43,0.711c-0.227,0-0.396-0.303-0.396-0.711
	c0-0.392,0.181-0.712,0.419-0.712C2.019,1.888,2.177,2.208,2.177,2.6z M1.551,23.982V7.626h0.427v16.356H1.551z M16.169,12.329
	c0,8.247-2.914,11.995-6.103,11.995c-3.257,0-5.896-4.055-5.896-11.654c0-7.803,2.73-11.995,6.125-11.995
	C13.622,0.675,16.169,4.798,16.169,12.329z M4.604,12.5c0,6.252,1.928,11.109,5.483,11.109c3.58,0,5.632-5.006,5.632-11.18
	c0-5.726-1.646-10.951-5.398-10.951C6.566,1.477,4.604,6.397,4.604,12.5z M17.732,22.211c0.719,0.75,1.953,1.475,3.016,1.475
	c2.018,0,3.811-2.217,3.811-5.48c0-3.028-1.195-4.607-3.224-5.965c-1.813-1.215-3.448-2.534-3.448-5.771
	c0-3.373,1.692-5.759,3.991-5.759c1.235,0,2.167,0.545,2.603,1.022L24.309,2.32c-0.369-0.409-1.365-0.93-2.451-0.93
	c-2.428,0-3.485,2.885-3.485,5.008c0,2.933,1.446,3.914,3.312,5.311C23.852,13.379,25,14.852,25,18.055
	c0,3.441-1.561,6.235-4.337,6.235c-1.149,0-2.472-0.614-3.123-1.397L17.732,22.211z"/>
</svg>
