<svg width="140" height="37" viewBox="0 0 140 37" fill="none" xmlns="http://www.w3.org/2000/svg">
<mask id="mask0_8165_2390" style="mask-type:luminance" maskUnits="userSpaceOnUse" x="0" y="0" width="140" height="37">
<path d="M139.359 0.373901H0.401367V36.1661H139.359V0.373901Z" fill="white"/>
</mask>
<g mask="url(#mask0_8165_2390)">
<mask id="mask1_8165_2390" style="mask-type:luminance" maskUnits="userSpaceOnUse" x="0" y="0" width="140" height="36">
<path d="M139.15 0.374023H0.402344V35.6749H139.15V0.374023Z" fill="white"/>
</mask>
<g mask="url(#mask1_8165_2390)">
<path d="M31.7033 16.0249C30.6506 16.0249 29.7383 16.9373 29.7383 17.99C29.7383 19.0427 30.5805 19.955 31.7033 19.955C32.8262 19.955 33.6684 19.0427 33.6684 17.99C33.6684 16.9373 32.8262 16.0249 31.7033 16.0249Z" fill="black"/>
<path d="M31.7033 29.7798C30.6506 29.7798 29.7383 30.6921 29.7383 31.7448C29.7383 32.7976 30.5805 33.7099 31.7033 33.7099C32.8262 33.7099 33.6684 32.7976 33.6684 31.7448C33.6684 30.6921 32.8262 29.7798 31.7033 29.7798Z" fill="black"/>
<path d="M18.0178 29.7798C16.9651 29.7798 16.0527 30.6921 16.0527 31.7448C16.0527 32.7976 16.8949 33.7099 18.0178 33.7099C19.0705 33.7099 19.9828 32.7976 19.9828 31.7448C19.9828 30.6921 19.0705 29.7798 18.0178 29.7798Z" fill="black"/>
<path d="M18.018 21.9194C20.1887 21.9194 21.9481 20.1599 21.9481 17.9893C21.9481 15.8188 20.1887 14.0592 18.018 14.0592C15.8473 14.0592 14.0879 15.8188 14.0879 17.9893C14.0879 20.1599 15.8473 21.9194 18.018 21.9194Z" fill="black"/>
<path d="M4.33247 8.23426C6.50316 8.23426 8.26258 6.47469 8.26258 4.30414C8.26258 2.13359 6.50316 0.374023 4.33247 0.374023C2.16178 0.374023 0.402344 2.13359 0.402344 4.30414C0.402344 6.47469 2.16178 8.23426 4.33247 8.23426Z" fill="black"/>
<path d="M4.33247 21.9194C6.50316 21.9194 8.26258 20.1599 8.26258 17.9893C8.26258 15.8188 6.50316 14.0592 4.33247 14.0592C2.16178 14.0592 0.402344 15.8188 0.402344 17.9893C0.402344 20.1599 2.16178 21.9194 4.33247 21.9194Z" fill="black"/>
<path d="M18.018 8.23426C20.1887 8.23426 21.9481 6.47469 21.9481 4.30414C21.9481 2.13359 20.1887 0.374023 18.018 0.374023C15.8473 0.374023 14.0879 2.13359 14.0879 4.30414C14.0879 6.47469 15.8473 8.23426 18.018 8.23426Z" fill="black"/>
<path d="M31.7026 8.23426C33.8733 8.23426 35.6327 6.47469 35.6327 4.30414C35.6327 2.13359 33.8733 0.374023 31.7026 0.374023C29.5319 0.374023 27.7725 2.13359 27.7725 4.30414C27.7725 6.47469 29.5319 8.23426 31.7026 8.23426Z" fill="black"/>
<path d="M4.33247 35.6749C6.50316 35.6749 8.26258 33.9148 8.26258 31.7448C8.26258 29.5741 6.50316 27.8147 4.33247 27.8147C2.16178 27.8147 0.402344 29.5741 0.402344 31.7448C0.402344 33.9148 2.16178 35.6749 4.33247 35.6749Z" fill="black"/>
<path d="M72.6188 15.7435C71.0748 13.4275 68.6887 11.9537 65.3902 11.9537C60.1266 11.9537 55.7754 16.3751 55.7754 22.0598C55.7754 27.7444 60.1266 32.1658 65.3902 32.1658C68.6185 32.1658 71.0748 30.692 72.6188 28.376V31.6745H75.9173V12.445H72.6188V15.7435ZM65.8112 28.9375C62.0215 28.9375 59.0739 25.9899 59.0739 22.0598C59.0739 18.1296 62.0215 15.182 65.8112 15.182C69.6712 15.182 72.6188 18.1296 72.6188 22.0598C72.6188 25.9899 69.6712 28.9375 65.8112 28.9375Z" fill="black"/>
<path d="M89.9519 12.0945C86.7236 12.0945 84.2673 13.5683 82.7233 15.8842V4.86584H79.4248V31.815H82.7233V28.5165C84.2673 30.8324 86.6534 32.3062 89.9519 32.3062C95.2155 32.3062 99.5667 27.8848 99.5667 22.2005C99.6368 16.5158 95.2856 12.0945 89.9519 12.0945ZM89.5308 29.0779C85.6709 29.0779 82.7233 26.1303 82.7233 22.2005C82.7233 18.2704 85.6709 15.3228 89.5308 15.3228C93.3206 15.3228 96.2682 18.2704 96.2682 22.2005C96.2682 26.1303 93.3908 29.0779 89.5308 29.0779Z" fill="black"/>
<path d="M105.534 15.743V12.5147H102.165V31.7441H105.534V21.4978C105.534 16.9361 108.692 15.4623 111.569 15.6027V12.0936C109.113 12.1638 106.727 13.006 105.534 15.743Z" fill="black"/>
<path d="M117.674 12.5159H114.516V31.7455H117.674V12.5159Z" fill="black"/>
<path d="M136.342 25.6389C135.29 27.6744 133.184 29.0078 130.588 29.0078C126.798 29.0078 123.85 25.99 123.85 22.1298C123.85 18.1997 126.728 15.2521 130.588 15.2521C133.114 15.2521 135.29 16.5856 136.202 18.691L139.009 17.0768C137.535 13.9889 134.377 12.0238 130.588 12.0238C124.833 12.0238 120.552 16.5154 120.552 22.2C120.552 27.9551 124.833 32.3765 130.588 32.3765C134.307 32.3765 137.535 30.3413 139.15 27.3235L136.342 25.6389Z" fill="black"/>
<path d="M46.5108 11.9535V12.5149H43.4229V15.7432H46.5108V31.7447H49.8795V15.7432H55.0027V12.5149H49.8795V11.9535C49.8795 8.58482 51.634 7.32156 55.0027 7.60228V4.30379C49.4584 3.95289 46.5108 6.8303 46.5108 11.9535Z" fill="black"/>
<path d="M116.061 4.86584C115.008 4.86584 114.096 5.7782 114.096 6.83091C114.096 7.88362 114.938 8.79596 116.061 8.79596C117.184 8.79596 118.026 7.88362 118.026 6.83091C118.026 5.7782 117.113 4.86584 116.061 4.86584Z" fill="black"/>
</g>
</g>
</svg>
