<?xml version="1.0" encoding="utf-8"?>
<!-- Generator: Adobe Illustrator 16.0.0, SVG Export Plug-In . SVG Version: 6.00 Build 0)  -->
<!DOCTYPE svg PUBLIC "-//W3C//DTD SVG 1.1//EN" "http://www.w3.org/Graphics/SVG/1.1/DTD/svg11.dtd">
<svg version="1.1" id="Layer_1" xmlns="http://www.w3.org/2000/svg" xmlns:xlink="http://www.w3.org/1999/xlink" x="0px" y="0px"
	 width="26px" height="25px" viewBox="0 0 26 25" enable-background="new 0 0 26 25" xml:space="preserve">
<path d="M22.137,16.13l1.364,0.742c0.084,0.046,0.153,0.11,0.203,0.188c0.047,0.077,0.072,0.164,0.072,0.253
	c0,0.09-0.025,0.177-0.072,0.254c-0.05,0.078-0.119,0.143-0.203,0.188l-9.961,5.418c-0.176,0.097-0.378,0.147-0.584,0.147
	c-0.206,0-0.408-0.051-0.584-0.147l-9.96-5.418c-0.084-0.046-0.154-0.11-0.202-0.188c-0.048-0.077-0.074-0.164-0.074-0.254
	c0-0.089,0.025-0.176,0.074-0.253c0.048-0.078,0.118-0.143,0.202-0.188l1.365-0.742l9.18,4.994L22.137,16.13L22.137,16.13z
	 M22.137,11.29l1.364,0.743c0.084,0.045,0.153,0.11,0.203,0.188c0.047,0.078,0.072,0.165,0.072,0.254
	c0,0.089-0.025,0.176-0.072,0.254c-0.05,0.077-0.119,0.142-0.203,0.188l-10.545,5.737L2.411,12.916
	c-0.084-0.046-0.154-0.11-0.202-0.188c-0.048-0.078-0.074-0.165-0.074-0.254c0-0.089,0.025-0.176,0.074-0.254
	s0.118-0.142,0.202-0.188l1.365-0.743l9.18,4.994L22.137,11.29z M13.539,1.826l9.962,5.418c0.084,0.045,0.153,0.111,0.203,0.188
	c0.047,0.078,0.072,0.165,0.072,0.254s-0.025,0.176-0.072,0.254c-0.05,0.077-0.119,0.142-0.203,0.188l-10.545,5.737L2.411,8.127
	C2.327,8.082,2.257,8.017,2.208,7.94C2.16,7.862,2.135,7.775,2.135,7.686S2.16,7.51,2.208,7.432C2.257,7.355,2.327,7.29,2.411,7.244
	l9.96-5.418c0.177-0.096,0.378-0.147,0.584-0.147C13.162,1.679,13.364,1.729,13.539,1.826L13.539,1.826z M12.956,3.909L6.013,7.686
	l6.942,3.777l6.943-3.777L12.956,3.909z"/>
</svg>
