<svg width="25" height="25" viewBox="0 0 25 25" fill="none" xmlns="http://www.w3.org/2000/svg">
<g clip-path="url(#clip0_736_2014)">
<path d="M12.5 0C5.60752 0 0 5.60752 0 12.5C0 19.3925 5.60752 25 12.5 25C19.3925 25 25 19.3925 25 12.5C25 5.60752 19.3925 0 12.5 0ZM8.43589 2.41934C7.68242 3.44629 7.1227 4.66172 6.72227 5.85459C5.99438 5.59365 5.32056 5.28154 4.71523 4.92246C5.7605 3.84897 7.025 2.99023 8.43589 2.41934ZM3.65693 6.18662C4.43677 6.67314 5.31885 7.0876 6.27656 7.4228C5.96079 8.75747 5.77148 10.1968 5.7208 11.6847H1.66094C1.81289 9.64478 2.53047 7.75991 3.65693 6.18662ZM3.65688 18.8133C2.53047 17.2401 1.81284 15.3552 1.66089 13.3152H5.7207C5.77139 14.8032 5.96069 16.2425 6.27647 17.5771C5.3188 17.9124 4.43682 18.3268 3.65688 18.8133ZM4.71528 20.0775C5.32061 19.7184 5.99443 19.4063 6.72231 19.1454C7.12271 20.3381 7.68242 21.5536 8.43594 22.5806C7.025 22.0098 5.7605 21.151 4.71528 20.0775ZM11.6848 23.219C10.0013 22.6012 8.86641 20.3879 8.2854 18.683C9.35186 18.4292 10.4971 18.2732 11.6848 18.224V23.219ZM11.6848 16.5924C10.3467 16.6442 9.05122 16.8223 7.84145 17.116C7.56685 15.9284 7.40015 14.6459 7.35176 13.3152H11.6848V16.5924ZM11.6848 11.6848H7.35176C7.4001 10.3541 7.5668 9.07158 7.84145 7.88398C9.05122 8.17764 10.3467 8.35571 11.6848 8.40752V11.6848ZM11.6848 6.77603C10.4972 6.72681 9.3519 6.5708 8.2854 6.31704C8.86597 4.61323 10.0008 2.39897 11.6848 1.78096V6.77603ZM21.3431 6.18667C22.4695 7.75986 23.1872 9.64478 23.3391 11.6848H19.2793C19.2286 10.1968 19.0393 8.75752 18.7235 7.42285C19.6812 7.08765 20.5632 6.67319 21.3431 6.18667ZM20.2847 4.92251C19.6794 5.28159 19.0056 5.5937 18.2777 5.85464C17.8773 4.66187 17.3176 3.44644 16.5641 2.41938C17.975 2.99023 19.2395 3.84897 20.2847 4.92251ZM13.3152 1.78096C14.9987 2.39883 16.1336 4.61211 16.7146 6.31704C15.6481 6.57085 14.5029 6.72676 13.3152 6.77603V1.78096ZM13.3152 8.40757C14.6533 8.35576 15.9488 8.17769 17.1585 7.88403C17.4332 9.07158 17.5999 10.3541 17.6482 11.6848H13.3152V8.40757ZM13.3152 13.3098H17.6482C17.5999 14.6405 17.4332 15.9284 17.1585 17.116C15.9488 16.8223 14.6533 16.6442 13.3152 16.5924V13.3098ZM13.3152 23.219V18.224C14.5028 18.2732 15.6481 18.4292 16.7146 18.683C16.134 20.3867 14.9992 22.601 13.3152 23.219ZM16.5641 22.5807C17.3176 21.5537 17.8773 20.3383 18.2777 19.1454C19.0056 19.4063 19.6794 19.7185 20.2848 20.0775C19.2395 21.151 17.975 22.0098 16.5641 22.5807ZM21.3431 18.8134C20.5632 18.3269 19.6812 17.9124 18.7234 17.5772C19.0392 16.2425 19.2285 14.7978 19.2792 13.3099H23.339C23.1871 15.3498 22.4695 17.2401 21.3431 18.8134Z" fill="#37B3F1"/>
</g>
<defs>
<clipPath id="clip0_736_2014">
<rect width="25" height="25" fill="white"/>
</clipPath>
</defs>
</svg>
