<svg width="24" height="24" viewBox="0 0 24 24" fill="none" xmlns="http://www.w3.org/2000/svg">
<g opacity="0.4">
<path d="M14.4 9.602H9.6V14.402H14.4V9.602V9.602ZM7.8 17.998C8.79 17.998 9.6 17.188 9.6 16.198V14.398H7.8C6.81 14.398 6 15.208 6 16.198C6 17.188 6.81 17.998 7.8 17.998ZM7.8 9.6H9.6V7.8C9.6 6.81 8.79 6 7.8 6C6.81 6 6 6.81 6 7.8C6 8.79 6.81 9.6 7.8 9.6ZM14.4 9.6H16.2C17.19 9.6 18 8.79 18 7.8C18 6.81 17.19 6 16.2 6C15.21 6 14.4 6.81 14.4 7.8V9.6V9.6Z" stroke="black" stroke-width="1.5" stroke-linecap="round" stroke-linejoin="round"/>
<path d="M16.2004 17.998C17.1904 17.998 18.0004 17.188 18.0004 16.198C18.0004 15.208 17.1904 14.398 16.2004 14.398H14.4004V16.198C14.4004 17.188 15.2104 17.998 16.2004 17.998Z" stroke="black" stroke-width="1.5" stroke-linecap="round" stroke-linejoin="round"/>
</g>
<path d="M9 22H15C20 22 22 20 22 15V9C22 4 20 2 15 2H9C4 2 2 4 2 9V15C2 20 4 22 9 22Z" stroke="black" stroke-width="1.5" stroke-linecap="round" stroke-linejoin="round"/>
</svg>
