<svg width="24" height="24" viewBox="0 0 24 24" fill="none" xmlns="http://www.w3.org/2000/svg">
<path opacity="0.4" d="M6.05985 15.58L11.6698 5.97001C11.8298 5.69001 12.2298 5.67001 12.4198 5.93001L13.9798 8.02001C14.4298 8.62001 14.4598 9.43001 14.0698 10.07L10.7298 15.42C10.3998 15.95 9.81985 16.27 9.18985 16.27H6.44985C6.09985 16.26 5.87985 15.88 6.05985 15.58V15.58ZM15.2398 12.37L13.3198 15.57C13.1398 15.87 13.3598 16.26 13.7098 16.26H17.5498C17.8998 16.26 18.1198 15.88 17.9398 15.57L16.0198 12.37C15.8498 12.08 15.4198 12.08 15.2398 12.37V12.37Z" stroke="#0CBFAA" stroke-width="1.5" stroke-miterlimit="10" stroke-linecap="round" stroke-linejoin="round"/>
<path d="M12 22C17.523 22 22 17.523 22 12C22 6.477 17.523 2 12 2C6.477 2 2 6.477 2 12C2 17.523 6.477 22 12 22Z" stroke="#0CBFAA" stroke-width="1.5" stroke-miterlimit="10"/>
</svg>
