<svg width="24" height="24" viewBox="0 0 24 24" fill="none" xmlns="http://www.w3.org/2000/svg">
<path d="M22 5.15V7.85C22 10.1 21.1 11 18.85 11H16.15C13.9 11 13 10.1 13 7.85V5.15C13 2.9 13.9 2 16.15 2H18.85C21.1 2 22 2.9 22 5.15ZM11 16.15V18.85C11 21.1 10.1 22 7.85 22H5.15C2.9 22 2 21.1 2 18.85V16.15C2 13.9 2.9 13 5.15 13H7.85C10.1 13 11 13.9 11 16.15Z" stroke="#08A8D3" stroke-width="1.5" stroke-linecap="round" stroke-linejoin="round"/>
<path opacity="0.4" d="M17.3801 11.001V13.621C17.3801 16.311 16.3101 17.381 13.6201 17.381H11.0001V16.151C11.0001 13.901 10.1001 13.001 7.85012 13.001H6.62012V10.381C6.62012 7.69097 7.69012 6.62097 10.3801 6.62097H13.0001V7.85097C13.0001 10.101 13.9001 11.001 16.1501 11.001H17.3801V11.001Z" stroke="#08A8D3" stroke-width="1.5" stroke-linecap="round" stroke-linejoin="round"/>
</svg>
