<svg width="16" height="16" viewBox="0 0 16 16" fill="none" xmlns="http://www.w3.org/2000/svg">
<path d="M5.73271 0.439453H0.727051V5.33446H5.73271V0.439453Z" fill="#FB344F"/>
<path d="M11.6619 6.349H6.65625V11.244H11.6619V6.349Z" fill="#FB344F"/>
<path d="M11.6619 0.439453H6.65625V5.33446H15.9532V4.63499C15.9531 3.52222 15.5009 2.45509 14.6963 1.66829C13.8916 0.881482 12.8003 0.439453 11.6623 0.439453H11.6619Z" fill="#FB344F"/>
<path d="M0.727051 6.349V11.244C0.727165 12.3568 1.17928 13.4239 1.98396 14.2107C2.78863 14.9975 3.87995 15.4395 5.01786 15.4395H5.73271V6.349H0.727051Z" fill="#FB344F"/>
<path opacity="0.18" d="M0.727051 0.439453L5.73271 5.33446H0.727051V0.439453Z" fill="#FB344F"/>
<path opacity="0.18" d="M6.65625 6.349L11.6619 11.244H6.65625V6.349Z" fill="#FB344F"/>
<path opacity="0.18" d="M0.727051 11.244C0.727165 12.3568 1.17928 13.4239 1.98396 14.2107C2.78863 14.9975 3.87995 15.4395 5.01786 15.4395H5.73271V6.349L0.727051 11.244Z" fill="#FB344F"/>
<path opacity="0.18" d="M11.6623 0.439453C12.8003 0.439453 13.8916 0.881482 14.6963 1.66829C15.5009 2.45509 15.9531 3.52222 15.9532 4.63499V5.33446H6.65625L11.6623 0.439453Z" fill="#FB344F"/>
</svg>
