<svg width="20" height="21" viewBox="0 0 20 21" fill="none" xmlns="http://www.w3.org/2000/svg"><path d="M17.5 16.3941V10.7833C17.5 10.3312 17.408 9.88376 17.2297 9.4683C17.0513 9.05284 16.7903 8.67801 16.4625 8.36661L11.1483 3.31911C10.8386 3.02485 10.4277 2.86078 10.0004 2.86078C9.57318 2.86078 9.16225 3.02485 8.8525 3.31911L3.5375 8.36661C3.20971 8.67801 2.9487 9.05284 2.77034 9.4683C2.59198 9.88376 2.5 10.3312 2.5 10.7833V16.3941C2.5 16.8361 2.67559 17.2601 2.98816 17.5726C3.30072 17.8852 3.72464 18.0608 4.16667 18.0608H15.8333C16.2754 18.0608 16.6993 17.8852 17.0118 17.5726C17.3244 17.2601 17.5 16.8361 17.5 16.3941Z" stroke="black" stroke-width="0.555556" stroke-linecap="round" stroke-linejoin="round"/><path d="M7.5 13.0608C7.5 12.6187 7.6756 12.1948 7.98816 11.8823C8.30072 11.5697 8.72464 11.3941 9.16667 11.3941H10.8333C11.2754 11.3941 11.6993 11.5697 12.0118 11.8823C12.3244 12.1948 12.5 12.6187 12.5 13.0608V18.0608H7.5V13.0608Z" stroke="black" stroke-width="0.555556" stroke-linecap="round" stroke-linejoin="round"/></svg>