<svg width="20" height="20" viewBox="0 0 20 20" fill="none" xmlns="http://www.w3.org/2000/svg"><path d="M1.66602 5.83329C1.66602 5.39127 1.84161 4.96734 2.15417 4.65478C2.46673 4.34222 2.89065 4.16663 3.33268 4.16663H16.666C17.108 4.16663 17.532 4.34222 17.8445 4.65478C18.1571 4.96734 18.3327 5.39127 18.3327 5.83329V14.1666C18.3327 14.6087 18.1571 15.0326 17.8445 15.3451C17.532 15.6577 17.108 15.8333 16.666 15.8333H3.33268C2.89065 15.8333 2.46673 15.6577 2.15417 15.3451C1.84161 15.0326 1.66602 14.6087 1.66602 14.1666V5.83329Z" stroke="black" stroke-linecap="round" stroke-linejoin="round"/><path d="M10 12.5C11.3807 12.5 12.5 11.3807 12.5 10C12.5 8.61929 11.3807 7.5 10 7.5C8.61929 7.5 7.5 8.61929 7.5 10C7.5 11.3807 8.61929 12.5 10 12.5Z" stroke="black" stroke-linecap="round" stroke-linejoin="round"/><path d="M1.66602 7.49996C2.55007 7.49996 3.39792 7.14877 4.02304 6.52365C4.64816 5.89853 4.99935 5.05068 4.99935 4.16663" stroke="black" stroke-linecap="round" stroke-linejoin="round"/><path d="M15 15.8333C15 14.9493 15.3512 14.1014 15.9763 13.4763C16.6014 12.8512 17.4493 12.5 18.3333 12.5" stroke="black" stroke-linecap="round" stroke-linejoin="round"/></svg>