<svg xmlns="http://www.w3.org/2000/svg" xmlns:xlink="http://www.w3.org/1999/xlink" viewBox="0 0 93.8 121.8"><style>.st2{fill:#dcdedc}</style><g id="Layer_2"><path fill="none" d="M92.4 8.1h2.4v1.7h-2.4z"/><path id="Fill-1_3_" fill="#fff" d="M8.1 89.9L47.6 110l38-20.1V11.3H8.1z"/><path id="Path-2_3_" fill="#f2f3f2" d="M86.4 11.6L7.3 91.3l41 20.3 38.1-19.5z"/><path id="outline_3_" class="st2" d="M5.5 37.5v54.1l1.4.7 39.5 20.1 1.2.6 1.2-.6 38.1-20.1 1.4-.7V8.7H5.5v28.8zm2.6 52.6V11.3h77.6v78.8l-38.1 20.1L8.1 90.1z"/><path id="g2_3_" d="M46.9 12.6c.4 0 .8 0 1.2.1L46.9 15c-1.8-.1-3.4 1.3-3.5 3.1-.1 1.8 1.3 3.4 3.1 3.5h.4c.8 0 1.6-.3 2.2-.8l1.3 2.2c-1 .7-2.2 1.1-3.5 1.1-3.2.1-5.9-2.3-6-5.5-.1-3.2 2.3-5.9 5.5-6h.5zm4.1 4.9l1.5 2.5-1.5 2.4-1.4-2.4h-2.9l1.5-2.5H51zm-2.4-.9c0-.4.1-.8.3-1.1.2-.3.6-.6.9-.8l.2-.1c.4-.2.5-.3.5-.5s-.3-.4-.5-.4c-.4 0-.7.2-.9.6l-.5-.5c.1-.2.3-.4.5-.6.3-.2.6-.2.9-.2.3 0 .7.1.9.3.2.2.4.5.4.8 0 .5-.3.9-.9 1.1l-.3.2c-.3.2-.5.3-.6.6h1.8v.7l-2.7-.1zm-1.7 12.5l9.5-5.4v-15H37.3v14.9l9.6 5.5z" fill="#ff492c"/></g><g id="Layer_1"><path d="M23.3 49.1v-8.8c0-.1.1-.2.2-.2h2.3c.1 0 .2.1.2.2v8.8c0 1.3.9 2.3 2.3 2.3s2.3-.9 2.3-2.3v-8.8c0-.1.1-.2.2-.2h2.3c.1 0 .2.1.2.2v8.8c0 2.8-2 4.6-5 4.6s-5-1.9-5-4.6zM35 50.8v-.2c0-.1.1-.2.2-.2h2.1c.1 0 .2.1.2.2 0 .6.7 1 1.7 1 .9 0 1.5-.4 1.5-.9 0-.8-1.5-.8-2.9-1.3-1.3-.4-2.7-1.1-2.7-2.8 0-1.9 1.6-3.1 4.1-3.1 2.5 0 4.1 1.3 4.1 3.1 0 .1-.1.2-.2.2H41c-.1 0-.2-.1-.2-.2 0-.6-.6-1-1.6-1-.8 0-1.4.3-1.4.9 0 .8 1.3.8 2.8 1.3 1.5.4 3 1.1 3 2.9 0 1.9-1.7 3-4.2 3-2.7 0-4.4-1.2-4.4-2.9zm18.9-1.6c0 .2-.1.2-.3.2h-6c-.1 0-.1 0-.1.1 0 .3.1.5.2.8.3.7.9 1.1 2 1.1.9 0 1.5-.4 2-1 .1-.1.2-.2.3 0l1.4 1.4c.1.1.1.2 0 .3-.9 1.1-2.3 1.7-3.9 1.7-2.2 0-3.7-1.1-4.4-2.9-.3-.7-.4-1.4-.4-2.4 0-.7.1-1.4.3-2 .6-1.8 2.1-3 4.2-3 2.6 0 4.2 1.7 4.5 4.1.2.5.2 1 .2 1.6zm-6.2-2.3c-.1.2-.1.4-.1.6 0 .1 0 .1.1.1H51c.1 0 .1 0 .1-.1 0-.2-.1-.4-.1-.5-.2-.8-.8-1.2-1.7-1.2-.8 0-1.3.4-1.6 1.1zm14-3.1c.1.1.1.2.1.3l-.4 2.2c0 .2-.1.2-.3.1-.3-.1-.7-.1-1.1-.1-.9.1-1.7.7-1.7 1.7v5.3c0 .1-.1.2-.2.2h-2.3c-.1 0-.2-.1-.2-.2v-9.4c0-.1.1-.2.2-.2h2.3c.1 0 .2.1.2.2v.7c0 .1.1.1.1.1.5-.7 1.2-1.2 2.1-1.2.6 0 .9.1 1.2.3zm.8 7v-.2c0-.1.1-.2.2-.2h2.1c.1 0 .2.1.2.2 0 .6.7 1 1.7 1 .9 0 1.5-.4 1.5-.9 0-.8-1.5-.8-2.9-1.3-1.3-.4-2.7-1.1-2.7-2.8 0-1.9 1.6-3.1 4.1-3.1 2.5 0 4.1 1.3 4.1 3.1 0 .1-.1.2-.2.2h-2.1c-.1 0-.2-.1-.2-.2 0-.6-.6-1-1.6-1-.8 0-1.4.3-1.4.9 0 .8 1.3.8 2.8 1.3 1.5.4 3 1.1 3 2.9 0 1.9-1.7 3-4.2 3-2.7 0-4.4-1.2-4.4-2.9zM14.6 69.5v-13c0-.1.1-.2.2-.2h2.3c.1 0 .2.1.2.2v10.8c0 .1 0 .1.1.1h6.3c.1 0 .2.1.2.2v1.9c0 .1-.1.2-.2.2h-8.9c-.1 0-.2-.1-.2-.2zm10.9-2.8c-.2-.6-.3-1.3-.3-2s.1-1.5.3-2c.6-1.9 2.2-3 4.4-3 2.1 0 3.7 1.2 4.3 3 .2.6.3 1.3.3 2s-.1 1.4-.3 1.9c-.6 2-2.2 3.2-4.3 3.2-2.2.1-3.9-1.1-4.4-3.1zm6.1-.6c.1-.4.2-.9.2-1.3 0-.5-.1-1-.2-1.4-.3-.9-.9-1.4-1.7-1.4-.9 0-1.5.5-1.7 1.4-.2.3-.2.8-.2 1.4 0 .5 0 1 .1 1.3.3.9.9 1.4 1.8 1.4.8.1 1.4-.5 1.7-1.4zm6.6 3.4L35.1 60c-.1-.2 0-.3.2-.3h2.5c.1 0 .2.1.3.2l1.6 5.8c0 .1.1.1.1 0l1.6-5.8c0-.1.1-.2.3-.2h2.5c.2 0 .3.1.2.3l-3.1 9.4c0 .1-.1.2-.3.2h-2.5c-.2.1-.3.1-.3-.1zM54 65.4c0 .2-.1.2-.3.2h-6c-.1 0-.1 0-.1.1 0 .3.1.5.2.8.3.7.9 1.1 2 1.1.9 0 1.5-.4 2-1 .1-.1.2-.2.3 0l1.4 1.4c.1.1.1.2 0 .3-.9 1.1-2.3 1.7-3.9 1.7-2.2 0-3.7-1.1-4.4-2.9-.3-.7-.4-1.4-.4-2.4 0-.7.1-1.4.3-2 .6-1.8 2.1-3 4.2-3 2.6 0 4.2 1.7 4.5 4.1.2.5.2 1 .2 1.6zm-6.2-2.3c-.1.2-.1.4-.1.6 0 .1 0 .1.1.1h3.3c.1 0 .1 0 .1-.1 0-.2-.1-.4-.1-.5-.2-.8-.8-1.2-1.7-1.2-.9 0-1.4.4-1.6 1.1zm11.8 2.2v-8.8c0-.1.1-.2.2-.2h2.3c.1 0 .2.1.2.2v8.8c0 1.3.9 2.3 2.3 2.3s2.3-.9 2.3-2.3v-8.8c0-.1.1-.2.2-.2h2.3c.1 0 .2.1.2.2v8.8c0 2.8-2 4.6-5 4.6s-5-1.9-5-4.6zM71.3 67v-.2c0-.1.1-.2.2-.2h2.1c.1 0 .2.1.2.2 0 .6.7 1 1.7 1 .9 0 1.5-.4 1.5-.9 0-.8-1.5-.8-2.9-1.3-1.3-.4-2.7-1.1-2.7-2.8 0-1.9 1.6-3.1 4.1-3.1 2.5 0 4.1 1.3 4.1 3.1 0 .1-.1.2-.2.2h-2.1c-.1 0-.2-.1-.2-.2 0-.6-.6-1-1.6-1-.8 0-1.4.3-1.4.9 0 .8 1.3.8 2.8 1.3 1.5.4 3 1.1 3 2.9 0 1.9-1.7 3-4.2 3-2.7 0-4.4-1.2-4.4-2.9z" fill="#252530"/><path class="st2" d="M19.3 81.2h20v.8h-20zm35.8 0h20v.8h-20z"/><defs><path id="SVGID_1_" d="M42.4 80.3l3.1-.5 1.6-3.1 1.5 3 3.3.6-2.3 2.3.5 3.3-3-1.4-3 1.4.4-3.3-2.1-2.3z"/></defs><use xlink:href="#SVGID_1_" fill-rule="evenodd" clip-rule="evenodd" fill="#dcdedc"/><clipPath id="SVGID_2_"><use xlink:href="#SVGID_1_"/></clipPath><g clip-path="url(#SVGID_2_)"><defs><path id="SVGID_3_" d="M-55.4-52.4h519.3v1999.9H-55.4z"/></defs></g></g></svg>