<svg width="26" height="26" viewBox="0 0 26 26" fill="none" xmlns="http://www.w3.org/2000/svg">
<rect width="26" height="26" rx="6" fill="#3617BA"/>
<path d="M20.8813 9.87731C20.8813 9.87731 20.1928 9.5505 19.4786 9.76256C18.9443 9.92045 18.3586 10.3262 18.0254 11.1689C17.3828 12.7855 17.9391 15.6046 17.7216 15.6046C17.504 15.6046 16.8192 13.0068 15.903 10.3014C14.9868 7.5961 14.1946 4.78612 12.7644 5.01287C11.4957 5.21299 11.8895 8.41678 12.3862 11.4177C12.836 14.1377 13.3565 16.6842 13.0591 16.6842C12.5276 16.6852 10.7834 9.16679 8.99603 9.45228C7.20869 9.73778 9.51102 18.0217 9.02723 18.0373C8.62974 18.0502 7.65483 12.9948 6.20808 13.227C5.11199 13.4033 6.08874 17.336 6.13372 18.433C6.14474 18.7084 6.23011 19.2243 5.81793 19.2243H5V19.989H6.33935C6.61475 19.9761 6.83231 19.8706 6.94247 19.5997C7.31426 18.6818 6.33751 14.7821 6.5661 14.7537C6.72307 14.7344 7.06181 15.9214 7.53458 17.2635C8.00734 18.6056 8.48103 19.9973 9.37882 19.9973C11.3148 19.9973 9.34027 12.389 9.72399 12.389C9.92687 12.389 10.4804 13.9348 11.089 15.6304C11.8335 17.7023 12.7414 20 13.8375 20C15.1457 20 14.7197 17.0321 14.3148 14.1882C13.9642 11.7271 13.5529 9.41464 13.7724 9.41464C14.2662 9.41464 16.1306 19.9963 18.3696 19.9963C19.4915 19.9963 19.5043 17.784 19.5043 15.399C19.5043 13.7237 19.3647 12.1971 20.4149 11.8299C20.9144 11.6554 21.4192 11.9649 21.4192 11.9649L20.8813 9.87731Z" fill="white"/>
</svg>
