<svg width="27" height="27" viewBox="0 0 27 27" fill="none" xmlns="http://www.w3.org/2000/svg">
<g clip-path="url(#clip0_2267_12431)">
<path d="M25.7405 23.4101C25.1174 24.968 23.871 26.1105 22.2092 26.526C21.1706 26.7337 20.1319 26.9414 19.0933 26.8376H7.46061C6.42198 26.8376 5.38334 26.7337 4.34471 26.526C2.78676 26.0067 1.5404 24.8642 0.813362 23.4101C0.397909 22.2676 0.294046 21.0212 0.294046 19.7749V8.03833C0.190183 6.79197 0.397909 5.54561 0.813362 4.40311C1.43654 2.84516 2.6829 1.70267 4.34471 1.28721C5.38334 1.07949 6.42198 0.871761 7.46061 0.975624H19.0933C20.1319 0.975624 21.1706 1.07949 22.2092 1.28721C23.7671 1.80653 25.0135 2.94903 25.7405 4.40311C26.156 5.54561 26.2599 6.79197 26.2599 8.03833V19.671C26.3637 20.9174 26.156 22.1637 25.7405 23.4101ZM15.1465 15.8281C14.6272 15.4126 14.004 15.101 13.277 15.2049C12.5499 15.2049 11.9267 15.4126 11.4074 15.8281C11.1997 16.0358 11.0958 16.2435 11.0958 16.5551C11.0958 17.1783 11.0958 17.9053 11.0958 18.5285C11.1997 19.3594 11.3035 20.3981 11.5113 21.4367C11.6151 21.956 11.719 22.4753 11.8229 22.8908C12.0306 23.514 12.6538 23.8255 13.3808 23.8255C14.004 23.9294 14.6272 23.514 14.9388 22.8908C15.0426 22.3715 15.1465 21.956 15.2504 21.4367C15.4581 20.3981 15.5619 19.2556 15.6658 18.5285C15.7697 17.9053 15.7697 17.1783 15.6658 16.5551C15.4581 16.2435 15.3542 16.0358 15.1465 15.8281ZM11.1997 12.089C11.1997 13.2315 12.1345 14.1663 13.277 14.1663C14.4194 14.1663 15.3542 13.2315 15.3542 12.089C15.3542 10.9465 14.4194 10.0117 13.277 10.0117C12.1345 10.0117 11.1997 10.9465 11.1997 12.089ZM13.277 3.77993C8.18765 3.77993 4.13699 7.93446 4.13699 12.9199C4.13699 16.7628 6.6297 20.1903 10.2649 21.5405C10.3688 21.5405 10.3688 21.5405 10.4726 21.4367C10.4726 21.4367 10.4726 21.4367 10.4726 21.3328C10.4726 21.0212 10.3688 20.7096 10.3688 20.3981C10.3688 20.2942 10.2649 20.1903 10.1611 20.1903C6.11039 18.4247 4.24085 13.7508 6.00652 9.70014C7.7722 5.64947 12.446 3.77993 16.4967 5.54561C20.5474 7.31128 22.4169 11.9851 20.6512 16.0358C19.8203 17.9053 18.3662 19.3594 16.4967 20.1903C16.3928 20.1903 16.289 20.2942 16.289 20.3981C16.289 20.7096 16.1851 21.0212 16.1851 21.3328C16.1851 21.4367 16.1851 21.4367 16.289 21.4367C16.289 21.4367 16.289 21.4367 16.3928 21.4367C21.1706 19.7749 23.6633 14.5817 22.0015 9.804C20.6512 6.16879 17.1199 3.77993 13.277 3.77993ZM13.0692 7.93446C15.7697 7.8306 18.0547 9.90786 18.1585 12.7122C18.2624 14.1663 17.6392 15.5165 16.6006 16.5551C16.4967 16.659 16.4967 16.7628 16.4967 16.8667C16.4967 17.1783 16.4967 17.5937 16.4967 17.9053C16.4967 18.0092 16.4967 18.0092 16.6006 18.0092C16.6006 18.0092 16.6006 18.0092 16.7044 18.0092C19.5087 16.1397 20.2358 12.2967 18.3662 9.49241C16.4967 6.6881 12.6538 5.96106 9.84946 7.8306C7.04516 9.70014 6.31811 13.5431 8.18765 16.3474C8.60311 16.9706 9.12242 17.4899 9.84946 18.0092C9.95333 18.0092 9.95333 18.0092 10.0572 18.0092C10.0572 18.0092 10.0572 18.0092 10.0572 17.9053C10.0572 17.5937 10.0572 17.1783 10.0572 16.8667C10.0572 16.7628 10.0572 16.659 9.95333 16.5551C7.97993 14.6856 7.87606 11.5697 9.7456 9.59627C10.5765 8.55764 11.8229 7.93446 13.0692 7.93446Z" fill="#3617BA"/>
</g>
<defs>
<clipPath id="clip0_2267_12431">
<rect width="25.9658" height="25.9658" fill="white" transform="translate(0.294922 0.871765)"/>
</clipPath>
</defs>
</svg>
