<svg width="27" height="27" viewBox="0 0 27 27" fill="none" xmlns="http://www.w3.org/2000/svg">
<g clip-path="url(#clip0_2267_12438)">
<path d="M21.0334 0.871765H5.4539C2.54573 0.871765 0.260742 3.15676 0.260742 6.06493V21.6444C0.260742 24.5526 2.54573 26.8376 5.4539 26.8376H21.0334C23.9416 26.8376 26.2266 24.5526 26.2266 21.6444V6.06493C26.2266 3.15676 23.9416 0.871765 21.0334 0.871765ZM7.21958 14.2701C7.21958 14.7894 6.80413 15.3088 6.18095 15.3088C5.55777 15.3088 5.14231 14.8933 5.14231 14.2701V13.1276C5.14231 12.6083 5.55777 12.089 6.18095 12.089C6.80413 12.089 7.21958 12.5044 7.21958 13.1276V14.2701ZM10.7509 17.5937C10.7509 18.1131 10.3355 18.6324 9.7123 18.6324C9.08912 18.6324 8.67367 18.2169 8.67367 17.5937V16.4513C8.67367 15.9319 9.08912 15.4126 9.7123 15.4126C10.3355 15.4126 10.7509 15.8281 10.7509 16.4513V17.5937ZM10.7509 13.4392C10.7509 13.9585 10.3355 14.4779 9.7123 14.4779C9.08912 14.4779 8.67367 14.0624 8.67367 13.4392V9.804C8.67367 9.28469 9.08912 8.76537 9.7123 8.76537C10.3355 8.76537 10.7509 9.18083 10.7509 9.804V13.4392ZM14.3861 19.7749V20.9174C14.3861 21.4367 13.9707 21.956 13.3475 21.956C12.7243 21.956 12.3089 21.5406 12.3089 20.9174V19.7749C12.3089 19.2556 12.7243 18.7362 13.3475 18.7362C13.9707 18.7362 14.3861 19.2556 14.3861 19.7749ZM14.3861 16.659C14.3861 17.1783 13.9707 17.6976 13.3475 17.6976C12.7243 17.6976 12.3089 17.2822 12.3089 16.659V10.7388C12.3089 10.2195 12.7243 9.70014 13.3475 9.70014C13.9707 9.70014 14.3861 10.1156 14.3861 10.7388V16.659ZM14.3861 7.72674C14.3861 8.24606 13.9707 8.76537 13.3475 8.76537C12.7243 8.76537 12.3089 8.34992 12.3089 7.72674V6.58424C12.3089 6.06493 12.7243 5.54561 13.3475 5.54561C13.9707 5.54561 14.3861 5.96106 14.3861 6.58424V7.72674ZM18.0214 14.0624V17.6976C18.0214 18.2169 17.6059 18.7362 16.9827 18.7362C16.3595 18.7362 15.9441 18.3208 15.9441 17.6976V14.0624C15.9441 13.5431 16.3595 13.0238 16.9827 13.0238C17.6059 13.0238 18.0214 13.4392 18.0214 14.0624ZM18.0214 10.9465C18.0214 11.4658 17.6059 11.9851 16.9827 11.9851C16.3595 11.9851 15.9441 11.5697 15.9441 10.9465V9.804C15.9441 9.28469 16.3595 8.76537 16.9827 8.76537C17.6059 8.76537 18.0214 9.18083 18.0214 9.804V10.9465ZM21.5527 14.2701C21.5527 14.7894 21.1373 15.3088 20.5141 15.3088C19.8909 15.3088 19.4754 14.8933 19.4754 14.2701V13.1276C19.4754 12.6083 19.8909 12.089 20.5141 12.089C21.1373 12.089 21.5527 12.5044 21.5527 13.1276V14.2701Z" fill="#3617BA"/>
</g>
<defs>
<clipPath id="clip0_2267_12438">
<rect width="25.9658" height="25.9658" fill="white" transform="translate(0.260742 0.871765)"/>
</clipPath>
</defs>
</svg>
