<svg width="26" height="26" viewBox="0 0 26 26" fill="none" xmlns="http://www.w3.org/2000/svg">
<rect width="26" height="26" rx="6" fill="#3617BA"/>
<path d="M13 19.75C11.665 19.75 10.3599 19.3541 9.2499 18.6124C8.13987 17.8707 7.27471 16.8165 6.76382 15.5831C6.25293 14.3497 6.11925 12.9925 6.3797 11.6831C6.64015 10.3738 7.28303 9.17104 8.22703 8.22703C9.17104 7.28303 10.3738 6.64015 11.6831 6.3797C12.9925 6.11925 14.3497 6.25293 15.5831 6.76382C16.8165 7.27471 17.8707 8.13987 18.6124 9.2499C19.3541 10.3599 19.75 11.665 19.75 13H22C22 11.22 21.4722 9.47991 20.4832 7.99987C19.4943 6.51983 18.0887 5.36628 16.4442 4.68509C14.7996 4.0039 12.99 3.82567 11.2442 4.17294C9.49836 4.5202 7.89471 5.37737 6.63604 6.63604C5.37737 7.89471 4.5202 9.49836 4.17294 11.2442C3.82567 12.99 4.0039 14.7996 4.68509 16.4442C5.36628 18.0887 6.51983 19.4943 7.99987 20.4832C9.47991 21.4722 11.22 22 13 22V19.75ZM13 16.4219C12.3232 16.4219 11.6616 16.2212 11.0989 15.8452C10.5362 15.4692 10.0976 14.9348 9.8386 14.3095C9.57961 13.6842 9.51184 12.9962 9.64388 12.3324C9.77591 11.6686 10.1018 11.0589 10.5804 10.5804C11.0589 10.1018 11.6686 9.77591 12.3324 9.64388C12.9962 9.51184 13.6842 9.57961 14.3095 9.8386C14.9348 10.0976 15.4692 10.5362 15.8452 11.0989C16.2212 11.6616 16.4219 12.3232 16.4219 13H18.3906C18.3906 11.9338 18.0745 10.8916 17.4821 10.0051C16.8898 9.11865 16.0479 8.42772 15.0629 8.01972C14.0779 7.61171 12.994 7.50496 11.9483 7.71296C10.9027 7.92096 9.94215 8.43436 9.18826 9.18826C8.43436 9.94215 7.92096 10.9027 7.71296 11.9483C7.50496 12.994 7.61171 14.0779 8.01972 15.0629C8.42772 16.0479 9.11865 16.8898 10.0051 17.4821C10.8916 18.0745 11.9338 18.3906 13 18.3906V16.4219Z" fill="white"/>
</svg>
