<svg width="27" height="27" viewBox="0 0 27 27" fill="none" xmlns="http://www.w3.org/2000/svg">
<g clip-path="url(#clip0_2267_12440)">
<path d="M8.01415 10.4274C7.59869 10.5312 7.2871 11.0506 7.49483 11.466C7.59869 11.8815 8.11801 12.1931 8.53346 11.9853C11.2339 11.1544 15.9078 11.3622 18.8159 13.024C19.2314 13.2317 19.7507 13.1278 19.9584 12.7124C20.1661 12.2969 20.0623 11.7776 19.6468 11.5699C16.3232 9.70034 11.13 9.49261 8.01415 10.4274Z" fill="#3617BA"/>
<path d="M17.3616 17.1784C14.765 15.7243 11.6491 15.4127 8.84481 16.2436C8.53322 16.3475 8.3255 16.6591 8.42936 16.8668C8.53322 17.1784 8.84481 17.3861 9.05254 17.2823C11.6491 16.5552 14.4534 16.8668 16.8423 18.1132C17.05 18.3209 17.4655 18.217 17.5693 17.9054C17.7771 17.6977 17.6732 17.2823 17.3616 17.1784Z" fill="#3617BA"/>
<path d="M18.4013 14.5817C15.3892 12.9199 11.8579 12.5045 8.53427 13.4392C8.22268 13.5431 8.01495 13.9585 8.11881 14.2701C8.22268 14.5817 8.63813 14.7894 8.94972 14.6856C11.8579 13.8547 15.0777 14.2701 17.7781 15.7242C18.0897 15.9319 18.5051 15.8281 18.7129 15.5165C18.8167 15.2049 18.7129 14.7894 18.4013 14.5817Z" fill="#3617BA"/>
<path d="M21.1018 0.871826H5.52226C2.61409 0.871826 0.329102 3.15682 0.329102 6.06499V21.6445C0.329102 24.5526 2.61409 26.8376 5.52226 26.8376H21.1018C24.0099 26.8376 26.2949 24.5526 26.2949 21.6445V6.06499C26.2949 3.15682 24.0099 0.871826 21.1018 0.871826ZM13.5197 22.8908C8.63816 22.8908 4.69136 18.944 4.69136 14.0625C4.69136 9.18089 8.63816 5.23408 13.5197 5.23408C18.4013 5.23408 22.3481 9.18089 22.3481 14.0625C22.3481 18.944 18.4013 22.8908 13.5197 22.8908Z" fill="#3617BA"/>
</g>
<defs>
<clipPath id="clip0_2267_12440">
<rect width="25.9658" height="25.9658" fill="white" transform="translate(0.329102 0.871765)"/>
</clipPath>
</defs>
</svg>
